<svg width="100%" height="100%" viewBox="0 0 100 100" fill="none" xmlns="http://www.w3.org/2000/svg">
  <path
    d="M73.5 19H81C84.3137 19 87 21.6863 87 25V92C87 95.3137 84.3137 98 81 98H43C39.6863 98 37 95.3085 37 91.9948C37 83.2635 37 80.5968 37 71.5"
    stroke="#ED1C24" stroke-width="4" />
  <g clip-path="url(#clip0_320_1855)">
    <path fill-rule="evenodd" clip-rule="evenodd"
      d="M63.5661 33.7638C66.6961 24.3252 62.8507 22.2189 58.3277 21.8676C57.2328 21.7825 56.1807 21.3645 55.4008 20.5873C52.9627 18.158 50.7544 16.2511 47.7541 16.6125C42.8668 17.2009 40.1302 24.5754 37.8108 30.8256L37.8106 30.8265C37.5313 31.5791 37.258 32.3154 36.9878 33.0216C33.9512 40.9579 29.4155 44.8766 23.7921 49.7352C22.5797 50.7827 21.3167 51.874 20.0073 53.0586C17.0134 55.767 16.4224 57.8272 16.888 59.2969C17.7438 61.9987 21.446 62.0238 24.2566 61.7829C44.9235 60.0114 59.6461 45.5845 63.5661 33.7638ZM42.884 27.8998C43.6545 24.0277 45.8934 21.2831 49.328 21.2831C49.7165 21.2831 50.0314 21.5997 50.0314 21.9902C50.0314 22.3808 49.7165 22.6974 49.328 22.6974C46.8562 22.6974 44.9698 24.6282 44.2637 28.1771C44.1875 28.5601 43.8169 28.8085 43.4359 28.7318C43.0549 28.6553 42.8079 28.2827 42.884 27.8998ZM42.6036 33.4277C42.6862 33.046 42.4453 32.6694 42.0656 32.5864C41.686 32.5035 41.3114 32.7457 41.2287 33.1272L41.2283 33.1293L41.2248 33.1445L41.2153 33.1849L41.2083 33.2132C41.193 33.2755 41.1688 33.3701 41.1344 33.4932C41.0656 33.7396 40.9564 34.0996 40.7972 34.5431C40.4784 35.4312 39.9611 36.6484 39.1705 37.9568C38.9687 38.2905 39.0743 38.7255 39.4064 38.9283C39.7385 39.1311 40.1711 39.0249 40.3729 38.6911C41.222 37.286 41.7771 35.98 42.1206 35.0231C42.2926 34.5443 42.4119 34.1514 42.489 33.8755C42.5275 33.7375 42.5556 33.6286 42.5742 33.5528C42.5771 33.5408 42.5799 33.5296 42.5824 33.5193C42.5848 33.5094 42.5869 33.5002 42.5889 33.4918L42.5954 33.464L42.6011 33.4391L42.6027 33.4317L42.6032 33.4293L42.6036 33.4277ZM54.8393 36.2479C55.193 36.4095 55.3495 36.8287 55.1887 37.1842C54.5518 38.5925 53.3058 40.8293 51.6158 43.0205C49.9313 45.2048 47.7624 47.4006 45.2652 48.6558C44.9176 48.8304 44.4951 48.6888 44.3213 48.3395C44.1475 47.9902 44.2884 47.5655 44.6359 47.3908C46.8637 46.2712 48.8784 44.2617 50.5039 42.1541C52.1238 40.0535 53.3142 37.9118 53.9078 36.599C54.0686 36.2435 54.4856 36.0863 54.8393 36.2479ZM36.596 53.9119C36.8855 53.6515 36.9102 53.2045 36.6512 52.9134C36.3922 52.6224 35.9474 52.5976 35.6579 52.8579C34.0529 54.3014 30.8528 56.009 26.4904 56.009C26.1019 56.009 25.787 56.3256 25.787 56.7161C25.787 57.1066 26.1019 57.4233 26.4904 57.4233C31.2143 57.4233 34.7447 55.5769 36.596 53.9119Z"
      fill="#ED1C24" />
    <path
      d="M56.0095 2.88108C60.4837 12.4857 56.9474 16.0388 54.4495 16.6747C54.3644 16.6964 54.3174 16.7885 54.3547 16.8684C55.2653 18.8178 57.6567 21.6079 60.7613 19.5176C60.7796 19.5051 60.7958 19.4871 60.8063 19.4675C65.8332 10.0746 60.0132 4.48286 56.1829 2.69246C56.0677 2.63859 55.9556 2.7654 56.0095 2.88108Z"
      fill="#ED1C24" />
  </g>
  <rect opacity="0.8" x="69" y="77" width="11" height="15" fill="#ED1C24" />
  <rect opacity="0.6" x="69" y="62" width="11" height="15" fill="#ED1C24" />
  <rect opacity="0.4" x="69" y="35" width="11" height="27" fill="#ED1C24" />
  <rect opacity="0.8" x="56" y="79" width="11" height="13" fill="#ED1C24" />
  <rect opacity="0.6" x="56" y="67" width="11" height="12" fill="#ED1C24" />
  <rect opacity="0.4" x="56" y="52" width="11" height="15" fill="#ED1C24" />
  <rect opacity="0.8" x="44" y="86" width="10" height="6" fill="#ED1C24" />
  <rect opacity="0.6" x="44" y="80" width="10" height="6" fill="#ED1C24" />
  <rect opacity="0.4" x="44" y="63" width="10" height="17" fill="#ED1C24" />
  <defs>
    <clipPath id="clip0_320_1855">
      <rect width="49" height="60" fill="white" transform="translate(16 2)" />
    </clipPath>
  </defs>
</svg>