<svg width="100%" height="100%" viewBox="0 0 456 132" fill="none" xmlns="http://www.w3.org/2000/svg">
  <path
    d="M245.841 55.604C247.88 47.4119 242.908 40.6328 230.727 40.6328H204.326L194.435 80.6992L200.176 90.5548H218.957C231.263 90.5548 240.797 84.8132 243.248 74.8323C244.482 69.7167 243.051 66.1394 239.831 64.3507V64.2255C242.884 62.2477 245.042 59.1529 245.841 55.604ZM229.743 74.5104C229.242 76.6031 227.829 78.7495 221.98 78.7495H209.996L212.089 70.1639H224.019C229.797 70.146 230.226 72.3461 229.672 74.5104H229.743ZM232.14 55.8723C231.711 57.4822 230.476 59.4497 225.432 59.4497H214.7L216.489 52.4739H227.221C232.319 52.4381 232.569 54.0837 232.14 55.8723Z"
    fill="white" />
  <path
    d="M254.785 40.6328L242.479 90.5369H286.444L289.324 78.7317H260.687L262.458 71.2192H286.498L289.235 59.4139H265.356L267.216 52.4381H290.862L293.599 40.6328H254.785Z"
    fill="white" />
  <path
    d="M342.001 40.6328H296.962L294.207 52.4381H308.57L299.144 90.5369H314.222L323.667 52.4381H339.049L342.001 40.6328Z"
    fill="white" />
  <path
    d="M129.612 90.5369H114.408L120.991 63.8856L122.511 59.8611L118.486 63.8856L114.015 68.411L113.836 55.1032L129.612 40.6328H141.9L129.612 90.5369Z"
    fill="white" />
  <path
    d="M184.505 69.8598L179.658 61.6498L203.179 40.6328H181.268L172.325 49.2185L141.989 77.0324L127.429 90.5369H148.159L163.739 76.6389L168.98 85.5823C170.768 87.836 173.29 90.5727 183.987 90.5727H196.507L184.523 69.8419L184.505 69.8598Z"
    fill="white" />
  <path
    d="M170.644 46.463V46.3557C169.302 44.4834 167.512 42.9782 165.436 41.9781C163.361 40.9781 161.068 40.5152 158.768 40.6319H142.58L154.654 61.166L170.644 46.463Z"
    fill="white" />
</svg>