<svg width="100%" height="100%" viewBox="0 0 72 79" fill="none" xmlns="http://www.w3.org/2000/svg">
  <path fill-rule="evenodd" clip-rule="evenodd"
    d="M66.1273 41.8242C70.2154 29.3968 65.1929 26.6234 59.2853 26.1609C57.8551 26.0489 56.481 25.4985 55.4624 24.4752C52.2779 21.2767 49.3936 18.7659 45.4749 19.2417C39.0914 20.0164 35.5172 29.7263 32.4878 37.9556L32.4874 37.9568C32.1226 38.9477 31.7657 39.9171 31.4128 40.847C27.4465 51.2964 21.5225 56.4561 14.1776 62.8533C12.5941 64.2325 10.9443 65.6694 9.23409 67.2291C5.32375 70.7952 4.55177 73.5077 5.15989 75.4428C6.27773 79.0002 11.1133 79.0332 14.7843 78.716C41.7778 76.3835 61.0073 57.3882 66.1273 41.8242ZM39.114 34.1033C40.1203 29.0051 43.0446 25.3914 47.5305 25.3914C48.038 25.3914 48.4494 25.8082 48.4494 26.3224C48.4494 26.8366 48.038 27.2534 47.5305 27.2534C44.302 27.2534 41.8383 29.7957 40.916 34.4685C40.8165 34.9727 40.3324 35.2998 39.8347 35.1988C39.3371 35.098 39.0145 34.6075 39.114 34.1033ZM38.7477 41.3817C38.8555 40.8792 38.5409 40.3834 38.0449 40.274C37.5492 40.1649 37.0599 40.4838 36.9519 40.9861L36.9513 40.9888L36.9468 41.0089L36.9344 41.062L36.9253 41.0993C36.9053 41.1814 36.8736 41.3059 36.8287 41.468C36.7389 41.7924 36.5962 42.2664 36.3883 42.8504C35.9719 44.0197 35.2963 45.6224 34.2636 47.345C34 47.7845 34.138 48.3572 34.5717 48.6242C35.0055 48.8912 35.5706 48.7513 35.8341 48.3119C36.9432 46.4619 37.6681 44.7423 38.1168 43.4824C38.3414 42.8519 38.4974 42.3347 38.598 41.9714C38.6483 41.7897 38.6849 41.6463 38.7093 41.5464C38.7131 41.5306 38.7167 41.5159 38.72 41.5023C38.7231 41.4892 38.7259 41.4772 38.7285 41.4661L38.7369 41.4296L38.7444 41.3968L38.7465 41.387L38.7472 41.3838L38.7477 41.3817ZM54.729 45.0949C55.191 45.3078 55.3953 45.8597 55.1853 46.3278C54.3535 48.1821 52.7261 51.1271 50.5188 54.0123C48.3186 56.8882 45.4857 59.7794 42.224 61.432C41.7701 61.6619 41.2182 61.4755 40.9913 61.0156C40.7642 60.5557 40.9482 59.9965 41.4021 59.7664C44.3119 58.2923 46.9434 55.6465 49.0664 52.8715C51.1823 50.1057 52.737 47.2858 53.5123 45.5573C53.7224 45.0892 54.2671 44.8822 54.729 45.0949ZM30.901 68.3527C31.2792 68.0098 31.3114 67.4212 30.9732 67.038C30.6348 66.6547 30.0539 66.6221 29.6757 66.9648C27.5794 68.8654 23.3998 71.1138 17.7019 71.1138C17.1944 71.1138 16.7831 71.5306 16.7831 72.0448C16.7831 72.559 17.1944 72.9759 17.7019 72.9759C23.8718 72.9759 28.483 70.5448 30.901 68.3527Z"
    fill="white" />
  <path
    d="M56.2573 1.1597C62.1011 13.8057 57.4823 18.4841 54.2198 19.3213C54.1087 19.3499 54.0472 19.4711 54.096 19.5764C55.2854 22.1431 58.4088 25.8167 62.4637 23.0644C62.4877 23.048 62.5089 23.0243 62.5226 22.9985C69.0883 10.6311 61.4866 3.26871 56.4838 0.911344C56.3333 0.840424 56.1869 1.00739 56.2573 1.1597Z"
    fill="white" />
</svg>