<svg width="100%" height="100%" viewBox="0 0 100 100" fill="none" xmlns="http://www.w3.org/2000/svg">
  <g clip-path="url(#clip0_320_1848)">
    <path fill-rule="evenodd" clip-rule="evenodd"
      d="M66.391 62.4711C69.9042 51.9314 65.588 49.5793 60.5111 49.187C59.2821 49.092 58.1012 48.6252 57.2258 47.7574C54.4892 45.0447 52.0105 42.9153 48.6428 43.3188C43.157 43.9759 40.0854 52.2108 37.482 59.1901L37.4817 59.1911C37.1682 60.0315 36.8615 60.8537 36.5582 61.6423C33.1497 70.5045 28.0587 74.8804 21.7467 80.3059C20.3859 81.4756 18.9681 82.6942 17.4984 84.017C14.1379 87.0414 13.4745 89.3419 13.9971 90.9831C14.9578 94.0001 19.1133 94.0281 22.2681 93.7591C45.4656 91.7809 61.991 75.6709 66.391 62.4711ZM43.1764 55.923C44.0412 51.5992 46.5543 48.5344 50.4094 48.5344C50.8455 48.5344 51.199 48.8879 51.199 49.324C51.199 49.7601 50.8455 50.1136 50.4094 50.1136C47.6349 50.1136 45.5176 52.2697 44.725 56.2327C44.6395 56.6603 44.2235 56.9377 43.7958 56.8521C43.3682 56.7666 43.0909 56.3506 43.1764 55.923ZM42.8616 62.0958C42.9543 61.6696 42.6839 61.2491 42.2577 61.1564C41.8317 61.0638 41.4112 61.3343 41.3184 61.7603L41.3179 61.7626L41.314 61.7796L41.3033 61.8247L41.2955 61.8563C41.2783 61.9259 41.2511 62.0315 41.2125 62.169C41.1353 62.4441 41.0127 62.8461 40.834 63.3414C40.4762 64.3331 39.8956 65.6923 39.0081 67.1533C38.7816 67.526 38.9002 68.0117 39.2729 68.2382C39.6457 68.4646 40.1313 68.346 40.3578 67.9733C41.3109 66.4043 41.9339 64.9459 42.3195 63.8774C42.5125 63.3427 42.6465 62.904 42.733 62.5959C42.7762 62.4418 42.8077 62.3202 42.8286 62.2355C42.8319 62.2221 42.835 62.2096 42.8378 62.1981C42.8405 62.187 42.8429 62.1768 42.8451 62.1674L42.8524 62.1364L42.8588 62.1086L42.8606 62.1003L42.8612 62.0976L42.8616 62.0958ZM56.5956 65.245C56.9926 65.4255 57.1682 65.8936 56.9877 66.2906C56.2729 67.8632 54.8743 70.3609 52.9774 72.8078C51.0866 75.2469 48.6521 77.6989 45.8491 79.1005C45.459 79.2955 44.9847 79.1374 44.7897 78.7473C44.5946 78.3573 44.7527 77.883 45.1428 77.6879C47.6434 76.4377 49.9048 74.1938 51.7293 71.8403C53.5476 69.4946 54.8837 67.1031 55.55 65.6371C55.7305 65.2401 56.1986 65.0646 56.5956 65.245ZM36.1184 84.9699C36.4434 84.6791 36.4711 84.1799 36.1804 83.8549C35.8896 83.5299 35.3904 83.5022 35.0654 83.7929C33.2639 85.4048 29.672 87.3116 24.7754 87.3116C24.3393 87.3116 23.9858 87.6651 23.9858 88.1012C23.9858 88.5373 24.3393 88.8909 24.7754 88.8909C30.0777 88.8909 34.0404 86.8291 36.1184 84.9699Z"
      fill="#ED1C24" />
    <path
      d="M57.9081 27.9827C62.9301 38.7078 58.9608 42.6755 56.1571 43.3856C56.0616 43.4098 56.0088 43.5126 56.0507 43.6019C57.0728 45.7787 59.757 48.8943 63.2417 46.5601C63.2623 46.5462 63.2805 46.5261 63.2923 46.5042C68.9347 36.0154 62.402 29.7714 58.1027 27.7721C57.9734 27.7119 57.8476 27.8535 57.9081 27.9827Z"
      fill="#ED1C24" />
  </g>
  <path
    d="M91.1121 35.526V41.6429C91.108 42.7572 90.7987 43.849 90.2179 44.7999C89.6371 45.7508 88.8069 46.5244 87.8175 47.0368C87.2647 50.6369 85.4438 53.9209 82.6831 56.2967C79.9224 58.6725 76.4036 59.9836 72.7614 59.9936C71.9502 59.9936 71.1723 59.6714 70.5987 59.0978C70.0252 58.5243 69.7029 57.7463 69.7029 56.9352C69.7029 56.124 70.0252 55.3461 70.5987 54.7725C71.1723 54.199 71.9502 53.8767 72.7614 53.8767C74.8319 53.8721 76.84 53.1674 78.4594 51.8771C80.0787 50.5869 81.2142 48.7869 81.6812 46.7697C80.8228 46.2174 80.1166 45.4588 79.627 44.5632C79.1374 43.6676 78.88 42.6636 78.8783 41.6429V35.526C78.8792 34.7033 79.0469 33.8892 79.3712 33.1331C79.6954 32.3769 80.1696 31.6943 80.765 31.1265C79.1861 26.1881 76.0788 21.8792 71.8915 18.8218C67.7043 15.7645 62.6538 14.1169 57.4691 14.1169C52.2845 14.1169 47.234 15.7645 43.0467 18.8218C38.8595 21.8792 35.7521 26.1881 34.1733 31.1265C34.7687 31.6943 35.2428 32.3769 35.5671 33.1331C35.8914 33.8892 36.059 34.7033 36.06 35.526V41.6429C36.06 43.2652 35.4155 44.8211 34.2684 45.9682C33.1212 47.1154 31.5654 47.7598 29.9431 47.7598C28.3208 47.7598 26.7649 47.1154 25.6178 45.9682C24.4706 44.8211 23.8262 43.2652 23.8262 41.6429V35.526C23.831 34.2103 24.2606 32.9312 25.0512 31.8794C25.8417 30.8276 26.9508 30.0592 28.2134 29.6888C30.1194 23.4143 33.9921 17.9189 39.2599 14.0136C44.5277 10.1082 50.9116 8 57.4691 8C64.0267 8 70.4105 10.1082 75.6783 14.0136C80.9462 17.9189 84.8189 23.4143 86.7249 29.6888C87.9874 30.0592 89.0966 30.8276 89.8871 31.8794C90.6776 32.9312 91.1073 34.2103 91.1121 35.526Z"
    fill="#ED1C24" />
  <defs>
    <clipPath id="clip0_320_1848">
      <rect width="55" height="67" fill="white" transform="translate(13 27)" />
    </clipPath>
  </defs>
</svg>