<svg width="100%" height="100%" viewBox="0 0 456 131" fill="none" xmlns="http://www.w3.org/2000/svg">
  <path
    d="M93.3722 91.6068C93.1515 91.8097 92.6159 91.9092 91.7592 91.9092H81.0968C79.9467 91.9092 79.4838 91.4072 79.7219 90.405L88.3347 53.6045C88.7584 51.8014 89.4206 50.0371 90.3284 48.3075C91.232 46.5822 92.3994 45.0561 93.8393 43.7288C95.275 42.4012 97.0131 41.3332 99.058 40.5335C101.095 39.7331 103.442 39.3309 106.093 39.3309H128.932C129.533 39.3309 129.9 39.422 130.034 39.5996C130.164 39.7723 130.134 40.2825 129.935 41.1344L127.951 49.6219C127.794 50.2749 127.596 50.7114 127.341 50.9362C127.085 51.1612 126.683 51.2738 126.134 51.2738H107.585C106.581 51.2738 105.747 51.412 105.086 51.6887C104.416 51.9612 103.884 52.2986 103.495 52.7008C103.101 53.1025 102.79 53.5523 102.574 54.0542C102.357 54.5553 102.189 55.0572 102.072 55.5545L100.986 60.211H120.738C121.339 60.211 121.703 60.3149 121.832 60.5095C121.962 60.7128 121.923 61.2404 121.724 62.0877L119.895 69.9006C119.627 71.0514 119.017 71.6308 118.066 71.6308H98.3143L93.9172 90.405C93.7743 91.0059 93.5929 91.4072 93.3722 91.6068Z"
    fill="white" />
  <path
    d="M160.06 65.6193C160.47 63.6692 160.743 61.8015 160.881 60.0241C161.024 58.2471 160.92 56.7078 160.574 55.4021C160.228 54.1005 159.566 53.0672 158.598 52.2891C157.629 51.5147 156.267 51.1213 154.517 51.1213C153.064 51.1213 151.697 51.4977 150.422 52.2498C149.146 53.0022 148.005 54.0185 147.005 55.294C146.003 56.5695 145.133 58.0611 144.385 59.7606C143.633 61.464 143.041 63.2414 142.609 65.0959C142.072 67.4008 141.735 69.4764 141.601 71.3263C141.471 73.182 141.601 74.7466 142.007 76.0221C142.405 77.3025 143.101 78.2878 144.087 78.9892C145.077 79.694 146.422 80.0432 148.126 80.0432C149.777 80.0432 151.243 79.6544 152.527 78.8766C153.812 78.1018 154.931 77.0511 155.891 75.7239C156.855 74.3963 157.677 72.8574 158.36 71.1064C159.048 69.3509 159.615 67.5263 160.06 65.6193ZM175.029 65.5455C174.043 69.7527 172.702 73.5315 171.017 76.8868C169.33 80.2428 167.25 83.1011 164.772 85.4487C162.295 87.8006 159.377 89.6077 156.034 90.8575C152.684 92.1067 148.882 92.7344 144.627 92.7344C140.572 92.7344 137.191 92.1198 134.501 90.8965C131.812 89.6682 129.788 87.8908 128.43 85.5647C127.072 83.2348 126.32 80.389 126.182 77.0342C126.039 73.6831 126.459 69.9046 127.445 65.6926C128.405 61.5895 129.797 57.8579 131.609 54.5072C133.42 51.1515 135.591 48.2804 138.124 45.9025C140.658 43.5242 143.555 41.6954 146.807 40.4195C150.059 39.1445 153.638 38.5083 157.543 38.5083C161.603 38.5083 164.972 39.1445 167.648 40.4195C170.329 41.6954 172.383 43.5109 173.814 45.8632C175.237 48.2199 176.036 51.065 176.209 54.3904C176.377 57.7241 175.988 61.4379 175.029 65.5455Z"
    fill="white" />
  <path
    d="M262.559 74.7846C262.9 73.3322 262.74 72.1428 262.088 71.2176C261.435 70.2929 260.285 69.825 258.642 69.825H249.83L247.526 79.6662H256.337C257.336 79.6662 258.192 79.515 258.914 79.2165C259.628 78.9141 260.241 78.5116 260.761 78.0146C261.276 77.5132 261.668 76.9894 261.954 76.4368C262.226 75.8832 262.434 75.334 262.559 74.7846ZM252.428 58.7128H260.267C261.257 58.7128 262.244 58.4582 263.208 57.9604C264.164 57.4588 264.817 56.482 265.157 55.0292C265.426 53.8788 265.292 53.0012 264.764 52.4003C264.232 51.7987 263.393 51.5008 262.253 51.5008H254.119L252.428 58.7128ZM272.179 63.2185C273.438 63.8153 274.455 64.5805 275.21 65.5057C275.967 66.435 276.529 67.46 276.897 68.5885C277.256 69.7128 277.429 70.8938 277.415 72.1171C277.408 73.3454 277.264 74.5555 276.979 75.7573C276.417 78.1621 275.44 80.354 274.052 82.3344C272.664 84.3102 270.974 86.0135 268.985 87.4413C267.004 88.8676 264.803 89.9703 262.395 90.744C259.982 91.5225 257.474 91.9072 254.872 91.9072H235.345C233.291 91.9072 232.054 91.5225 231.635 90.744C231.219 89.9703 231.215 88.7036 231.622 86.9514L241.61 44.2886C241.994 42.637 242.587 41.4 243.383 40.5747C244.174 39.744 245.601 39.3294 247.65 39.3294H267.181C269.43 39.3294 271.48 39.5841 273.312 40.081C275.15 40.583 276.664 41.3868 277.856 42.4855C279.05 43.592 279.876 44.9934 280.33 46.6925C280.78 48.3962 280.728 50.4502 280.161 52.8501C279.708 54.8043 278.74 56.6936 277.256 58.5228C275.782 60.3519 274.121 61.7657 272.289 62.7687L272.179 63.2185Z"
    fill="white" />
  <path
    d="M317.015 91.9092H293.804C290.795 91.9092 288.459 91.4814 286.782 90.6336C285.105 89.7776 283.885 88.6703 283.133 87.2909C282.375 85.9114 282 84.3721 281.996 82.6689C281.991 80.9651 282.191 79.2872 282.575 77.6356L288.201 53.6041C288.623 51.8006 289.285 50.0368 290.193 48.3074C291.097 46.5822 292.269 45.0557 293.704 43.7281C295.141 42.4008 296.882 41.3328 298.923 40.5327C300.96 39.7327 303.308 39.3305 305.963 39.3305H328.118C328.724 39.3305 329.087 39.4212 329.22 39.5989C329.36 39.7719 329.32 40.2863 329.127 41.1336L327.146 49.6257C326.99 50.2746 326.782 50.7114 326.527 50.9359C326.276 51.1608 325.874 51.273 325.325 51.273H307.45C306.447 51.273 305.608 51.4117 304.951 51.6884C304.28 51.9608 303.753 52.2983 303.36 52.7046C302.963 53.1021 302.659 53.5519 302.439 54.0538C302.223 54.5549 302.058 55.0564 301.937 55.5541L301.197 58.7102H321.334C321.935 58.7102 322.298 58.8141 322.429 59.0088C322.553 59.2121 322.519 59.7397 322.316 60.5911L320.491 68.4002C320.219 69.5499 319.609 70.1254 318.657 70.1254H298.526L297.211 75.7596C296.986 76.7146 296.921 77.4674 297.021 78.0166C297.116 78.5657 297.328 78.9765 297.67 79.2531C298.007 79.5253 298.444 79.7028 298.972 79.7803C299.507 79.8544 300.1 79.8881 300.749 79.8881H319.829C320.43 79.8881 320.794 79.9799 320.932 80.1568C321.066 80.3295 321.035 80.8442 320.837 81.6919L318.848 90.1839C318.58 91.3335 317.962 91.9092 317.015 91.9092Z"
    fill="white" />
  <path
    d="M373.236 51.2748H360.394L351.249 90.3328C351.11 90.9337 350.925 91.3482 350.699 91.5731C350.462 91.7979 349.926 91.9102 349.075 91.9102H338.407C337.257 91.9102 336.807 91.383 337.059 90.3328L346.198 51.2748H333.65C332.599 51.2748 332.207 50.7 332.478 49.5496L334.442 41.1354C334.646 40.2836 334.875 39.7738 335.147 39.5962C335.411 39.4189 335.847 39.3323 336.444 39.3323H376.034C376.63 39.3323 377.024 39.4189 377.206 39.5962C377.391 39.7738 377.383 40.2836 377.183 41.1354L375.216 49.5496C374.944 50.7 374.287 51.2748 373.236 51.2748Z"
    fill="white" />
  <path
    d="M196.182 63.4456L189.761 90.3313C189.623 90.9322 189.436 91.3468 189.207 91.5716C188.974 91.7965 188.438 91.9092 187.586 91.9092H176.924C175.769 91.9092 175.32 91.3864 175.57 90.3313L186.328 45.2719C186.89 42.9201 187.651 41.3374 188.624 40.5376C189.584 39.7379 191.123 39.3354 193.224 39.3354H197.129C197.882 39.3354 198.526 39.3744 199.057 39.4476C199.589 39.5255 200.065 39.6726 200.484 39.902C200.908 40.1268 201.293 40.4639 201.634 40.9137C201.981 41.3675 202.335 41.9684 202.706 42.7167L209.611 58.7889L213.283 67.9505H213.81L220.262 40.9137C220.405 40.3128 220.59 39.902 220.82 39.6726C221.049 39.4477 221.589 39.3354 222.436 39.3354H233.104C234.253 39.3354 234.708 39.863 234.453 40.9137L223.699 85.9764C223.293 87.6764 222.606 89.0947 221.636 90.2191C220.668 91.3468 219.055 91.9092 216.803 91.9092H212.898C212.194 91.9092 211.567 91.8751 211.008 91.7965C210.446 91.7239 209.958 91.5716 209.539 91.3468C209.115 91.1223 208.717 90.781 208.354 90.3313C207.986 89.8816 207.641 89.2807 207.316 88.5286L200.493 72.7585L196.709 63.4456H196.182Z"
    fill="white" />
</svg>