<svg width="100%" height="100%" viewBox="0 0 105 137" fill="none" xmlns="http://www.w3.org/2000/svg">
  <circle cx="52.5" cy="84.5" r="47.5" stroke="white" stroke-width="10" />
  <path
    d="M83.1773 19.5078C77.5235 7.86778 66.7393 0.646667 54.2799 -8.40299e-09C53.1282 -8.13624e-09 51.8718 -7.84524e-09 50.7201 -7.57848e-09C38.2607 0.538889 27.4765 7.86778 21.8227 19.5078C15.9595 31.5789 16.9018 45.2667 24.2308 56.26L50.7201 96.03C51.1389 96.5689 51.7671 97 52.3953 97C53.0235 97 53.7564 96.6767 54.0705 96.03L80.7692 56.26C88.0982 45.2667 89.0405 31.5789 83.1773 19.5078Z"
    fill="#ED1C24" />
  <g clip-path="url(#clip0_548_1965)">
    <path
      d="M70.2266 40.7475C72.3102 34.5256 69.6624 33.2287 66.6358 33.0396C66.0275 33.0016 65.4435 32.7698 65.0118 32.3415C63.3711 30.714 61.9056 29.412 59.8965 29.6516C56.3189 30.0782 54.5054 36.0163 52.8628 40.2673C50.4511 46.5086 46.5925 48.9092 41.7692 53.2301C39.5368 55.2299 39.3494 56.6834 39.8992 57.6463C40.6728 59.0011 42.569 59.0191 44.1305 58.9067C57.85 57.9189 67.6395 48.4729 70.2266 40.7475Z"
      fill="white" />
    <path
      d="M65.2743 20.7345C68.2306 26.9935 65.8897 29.294 64.2542 29.6949C64.2069 29.7064 64.1809 29.7568 64.2015 29.8008C64.7911 31.0631 66.359 32.8895 68.3969 31.528C68.4071 31.5212 68.4161 31.5113 68.4219 31.5005C71.7234 25.3952 67.8719 21.7716 65.3699 20.6299C65.3058 20.6006 65.2443 20.671 65.2743 20.7345Z"
      fill="white" />
    <path fill-rule="evenodd" clip-rule="evenodd"
      d="M38.4927 55.3767C38.2298 56.1268 38.2016 56.8423 38.3661 57.4896C36.9802 56.171 37.4316 53.8785 38.3123 52.843C38.823 52.2427 39.3356 51.6401 39.6802 50.8619C40.4549 49.1128 39.4083 47.8842 38.2371 46.5094L38.237 46.5092C37.7793 45.972 37.3027 45.4124 36.9082 44.7907C35.2353 42.1541 36.0938 37.9493 37.7036 35.6239C38.933 33.848 40.7832 30.9243 39.4152 28.5412C40.2588 28.7909 42.0871 30.2488 41.6618 34.4819C41.1462 39.614 43.7474 39.2337 44.7507 38.346C45.3663 37.8012 46.8713 35.8947 44.7507 32.218C42.6302 28.5412 42.3934 26.2604 43.4878 24.2179C43.5729 24.0591 43.664 23.8931 43.7586 23.7205L43.7587 23.7204C44.8821 21.6725 46.5171 18.692 44.7507 15.7407C45.6856 16.4216 47.6089 18.1774 47.2259 21.609C46.747 25.8986 46.7816 27.2546 48.5397 27.5003C50.2979 27.7461 52.0016 26.3625 52.0016 23.707C52.0016 22.2227 51.4983 20.8901 51.0012 19.5737C50.609 18.535 50.2206 17.5065 50.0862 16.4216C49.8467 14.4883 50.4283 11.5873 53.0276 10.7703C52.5944 11.7235 51.9879 14.1883 53.0276 16.4216C53.3113 17.0311 53.5886 17.5691 53.8436 18.0641L53.8436 18.0642L53.8437 18.0643C54.7568 19.8366 55.3856 21.0569 55.0113 23.0261L55.0059 23.0546C54.7186 24.128 54.177 27.8379 56.7214 27.2308C58.5333 26.7985 57.7343 24.8485 57.0628 23.2097C57.0523 23.1842 57.0419 23.1589 57.0315 23.1336C57.0204 23.1063 57.0093 23.0792 56.9983 23.0522L56.9982 23.052C56.8826 22.7689 56.7837 22.5269 56.7214 22.3453C56.3456 21.2491 55.4218 16.1493 58.0895 14.7875C57.9527 16.8528 58.1642 20.699 60.2784 20.2345C62.3927 19.7701 61.975 17.51 61.5097 16.4216C61.4775 16.3463 61.4357 16.2566 61.3879 16.154C60.8327 14.963 59.4554 12.0088 62.6042 9C62.3534 10.3391 62.7047 13.286 64.3143 15.7407C65.1949 17.0838 64.71 18.5044 64.2229 19.931C63.9312 20.7856 63.6387 21.6424 63.6387 22.4858C63.6387 22.9179 63.7331 23.316 63.9121 23.6631C64.1803 24.1827 64.5955 24.6174 65.0091 25.0504C65.3389 25.3958 65.5407 25.7723 65.6411 26.254C65.6324 26.7958 65.5375 27.2247 65.381 27.531C65.017 28.2437 64.3184 28.8018 63.1907 29.095C62.1967 28.5063 61.0618 28.1348 59.733 28.2932C57.1989 28.5954 55.5588 30.79 54.4402 32.883C53.5246 34.5961 52.762 36.6327 52.0928 38.4196C51.9155 38.893 51.7448 39.3489 51.5795 39.7766C49.7287 44.5664 47.0517 46.8614 43.411 49.9826L43.4107 49.9828C42.6046 50.6738 41.7514 51.4053 40.8495 52.2133C39.6422 53.2948 38.8554 54.3421 38.4927 55.3767Z"
      fill="white" />
  </g>
  <defs>
    <clipPath id="clip0_548_1965">
      <rect width="35" height="50" fill="white" transform="translate(36 9)" />
    </clipPath>
  </defs>
</svg>