<svg width="100%" height="100%" viewBox="0 0 26 27" fill="none" xmlns="http://www.w3.org/2000/svg">
  <path
    d="M12.9148 0.673828C5.86109 0.673828 0.0898438 6.44508 0.0898438 13.4988C0.0898438 20.5526 5.86109 26.3238 12.9148 26.3238C19.9686 26.3238 25.7398 20.5526 25.7398 13.4988C25.7398 6.44508 19.9686 0.673828 12.9148 0.673828ZM23.0145 8.68945H18.125C17.7242 6.20461 17.0028 4.12055 16.0409 2.75789C19.167 3.63961 21.6519 5.80383 23.0145 8.68945ZM16.9227 13.4988C16.9227 14.621 16.8425 15.663 16.7623 16.7051H9.06734C8.98719 15.663 8.90703 14.621 8.90703 13.4988C8.90703 12.3766 8.98719 11.3346 9.06734 10.2926H16.7623C16.8425 11.3346 16.9227 12.3766 16.9227 13.4988ZM12.9148 24.7207C11.5522 24.7207 10.0292 22.2359 9.30781 18.3082H16.5219C15.8005 22.2359 14.2775 24.7207 12.9148 24.7207ZM9.30781 8.68945C10.0292 4.7618 11.5522 2.27695 12.9148 2.27695C14.2775 2.27695 15.8005 4.7618 16.5219 8.68945H9.30781ZM9.78875 2.75789C8.82687 4.12055 8.10547 6.20461 7.70469 8.68945H2.81516C4.17781 5.80383 6.66266 3.63961 9.78875 2.75789ZM2.17391 10.2926H7.46422C7.38406 11.3346 7.30391 12.3766 7.30391 13.4988C7.30391 14.621 7.38406 15.663 7.46422 16.7051H2.17391C1.85328 15.663 1.69297 14.621 1.69297 13.4988C1.69297 12.3766 1.85328 11.3346 2.17391 10.2926ZM2.81516 18.3082H7.70469C8.10547 20.793 8.82687 22.8771 9.78875 24.2398C6.66266 23.358 4.17781 21.1938 2.81516 18.3082ZM16.0409 24.2398C17.0028 22.797 17.7242 20.793 18.125 18.3082H23.0145C21.6519 21.1938 19.167 23.358 16.0409 24.2398ZM23.6558 16.7051H18.3655C18.4456 15.663 18.5258 14.621 18.5258 13.4988C18.5258 12.3766 18.4456 11.3346 18.3655 10.2926H23.6558C23.9764 11.3346 24.1367 12.3766 24.1367 13.4988C24.1367 14.621 23.9764 15.663 23.6558 16.7051Z"
    fill="white" />
</svg>