<svg width="100%" height="100%" viewBox="0 0 38 53" fill="none" xmlns="http://www.w3.org/2000/svg">
  <g clip-path="url(#clip0_548_1949)">
    <path
      d="M36.2001 33.6532C38.4027 27.058 35.6036 25.6833 32.404 25.4828C31.761 25.4426 31.1437 25.1968 30.6873 24.7429C28.9528 23.0178 27.4036 21.6376 25.2796 21.8916C21.4977 22.3438 19.5805 28.6381 17.8441 33.1443C15.2946 39.76 11.2155 42.3046 6.11656 46.8848C3.75661 49.0046 3.55843 50.5453 4.1397 51.566C4.9575 53.0021 6.96207 53.0211 8.61274 52.902C23.1162 51.8549 33.4651 41.8421 36.2001 33.6532Z"
      fill="#ED1C24" />
    <path
      d="M30.965 12.4385C34.0901 19.073 31.6155 21.5116 29.8865 21.9364C29.8365 21.9487 29.809 22.0021 29.8308 22.0487C30.4541 23.3868 32.1116 25.3227 34.2659 23.8796C34.2767 23.8724 34.2862 23.8619 34.2924 23.8504C37.7825 17.3788 33.711 13.5378 31.0659 12.3276C30.9982 12.2965 30.9333 12.3711 30.965 12.4385Z"
      fill="#ED1C24" />
    <path fill-rule="evenodd" clip-rule="evenodd"
      d="M2.65274 49.1593C2.37482 49.9544 2.34494 50.7129 2.51888 51.399C1.05376 50.0013 1.53093 47.5712 2.46206 46.4736C3.00194 45.8372 3.54373 45.1985 3.90809 44.3736C4.72705 42.5196 3.62068 41.2173 2.38254 39.7599L2.3824 39.7598C1.8986 39.1903 1.39469 38.5971 0.977674 37.9381C-0.790805 35.1434 0.116691 30.6862 1.81858 28.2213C3.11819 26.3389 5.07415 23.2398 3.6279 20.7137C4.51976 20.9784 6.45251 22.5237 6.00293 27.0109C5.45787 32.4508 8.20767 32.0477 9.26829 31.1067C9.91912 30.5293 11.51 28.5084 9.26829 24.6111C7.02662 20.7137 6.7763 18.2961 7.93329 16.1309C8.02325 15.9626 8.1195 15.7867 8.21955 15.6037L8.21963 15.6036C9.40728 13.4329 11.1357 10.2736 9.26829 7.14514C10.2566 7.86686 12.2898 9.72807 11.8849 13.3656C11.3787 17.9125 11.4152 19.3499 13.2739 19.6104C15.1325 19.8709 16.9335 18.4042 16.9335 15.5894C16.9335 14.0161 16.4015 12.6035 15.876 11.2081C15.4614 10.1071 15.0508 9.01693 14.9088 7.86686C14.6556 5.81763 15.2703 2.74259 18.0182 1.87651C17.5602 2.88694 16.9191 5.49961 18.0182 7.86686C18.3181 8.51293 18.6112 9.08321 18.8808 9.60793L18.8808 9.608L18.8809 9.60814C19.8462 11.4868 20.5109 12.7804 20.1152 14.8677L20.1096 14.8979C19.8058 16.0357 19.2332 19.9681 21.9231 19.3246C23.8385 18.8664 22.9938 16.7994 22.2839 15.0623C22.2729 15.0353 22.2619 15.0084 22.2509 14.9816C22.2392 14.9527 22.2275 14.924 22.2158 14.8954L22.2157 14.8951C22.0935 14.5951 21.9889 14.3385 21.9231 14.146C21.5257 12.984 20.5491 7.57821 23.3694 6.13473C23.2247 8.324 23.4483 12.4009 25.6833 11.9086C27.9184 11.4163 27.4769 9.02057 26.985 7.86686C26.9509 7.78707 26.9068 7.692 26.8562 7.58321C26.2693 6.32083 24.8133 3.18938 28.142 0C27.8769 1.4194 28.2482 4.54317 29.9498 7.14514C30.8808 8.56879 30.3681 10.0747 29.8532 11.5869C29.5448 12.4928 29.2356 13.4009 29.2356 14.2949C29.2356 14.7529 29.3354 15.175 29.5247 15.5429C29.8082 16.0936 30.2471 16.5544 30.6844 17.0134C31.033 17.3795 31.2463 17.7786 31.3525 18.2892C31.3433 18.8635 31.2429 19.3182 31.0775 19.6429C30.6927 20.3984 29.9542 20.9899 28.762 21.3007C27.7113 20.6767 26.5115 20.2829 25.1067 20.4508C22.4278 20.7711 20.6941 23.0974 19.5115 25.316C18.5436 27.1319 17.7374 29.2906 17.0299 31.1848C16.8426 31.6866 16.6621 32.1698 16.4874 32.6231C14.5308 37.7004 11.7008 40.1331 7.85206 43.4415L7.8517 43.4418C6.99964 44.1742 6.09765 44.9496 5.14416 45.8061C3.86789 46.9525 3.03612 48.0626 2.65274 49.1593Z"
      fill="#ED1C24" />
  </g>
  <defs>
    <clipPath id="clip0_548_1949">
      <rect width="37" height="53" fill="white" transform="translate(0.0175781)" />
    </clipPath>
  </defs>
</svg>