<svg width="100%" height="100%" viewBox="0 0 86 84" fill="none" xmlns="http://www.w3.org/2000/svg">
  <path fill-rule="evenodd" clip-rule="evenodd"
    d="M15.1732 0H62.9576C71.3225 0 78.1308 6.79643 78.1308 15.1468V34.0282C78.0609 34.0275 77.991 34.0272 77.921 34.0272C76.2573 34.0272 74.6354 34.2054 73.073 34.5437V15.1468C73.073 9.57615 68.5351 5.04894 62.9576 5.04894H15.1732C9.59284 5.04894 5.05774 9.57896 5.05774 15.1468V56.694C5.05774 62.2646 9.59565 66.7918 15.1732 66.7918H27.9159C28.6633 66.7918 29.3742 67.1256 29.8547 67.6979L38.849 78.4493H38.9052H39.2845L48.2789 67.6979C48.7566 67.1256 49.4675 66.7918 50.2177 66.7918H57.4114C58.3044 68.626 59.4361 70.3224 60.7662 71.8408H51.4006L43.1621 81.6862C42.1478 82.9008 40.6529 83.5992 39.0654 83.5992C37.4778 83.5992 35.983 82.9008 34.9658 81.6862L26.7301 71.8408H15.1732C6.80827 71.8408 0 65.0472 0 56.694V15.1468C0 6.79643 6.80546 0 15.1732 0Z"
    fill="#ED1C24" />
  <g clip-path="url(#clip0_548_2020)">
    <path
      d="M85.5364 57.0496C86.7865 53.3165 85.1978 52.5384 83.3818 52.4249C83.0169 52.4021 82.6665 52.263 82.4075 52.0061C81.423 51.0296 80.5438 50.2484 79.3383 50.3921C77.1918 50.6481 76.1036 54.2109 75.1181 56.7616C73.6711 60.5063 71.3559 61.9467 68.4619 64.5392C67.1225 65.7391 67.01 66.6112 67.3399 67.189C67.8041 68.0018 68.9418 68.0126 69.8787 67.9452C78.1104 67.3525 83.9841 61.6849 85.5364 57.0496Z"
      fill="#ED1C24" />
    <path
      d="M82.564 45.0415C84.3378 48.7969 82.9332 50.1772 81.9519 50.4177C81.9235 50.4246 81.9079 50.4548 81.9203 50.4813C82.2741 51.2387 83.2148 52.3345 84.4375 51.5176C84.4437 51.5135 84.4491 51.5076 84.4526 51.5011C86.4335 47.8379 84.1226 45.6637 82.6213 44.9787C82.5829 44.9611 82.546 45.0034 82.564 45.0415Z"
      fill="#ED1C24" />
    <path fill-rule="evenodd" clip-rule="evenodd"
      d="M66.4956 65.826C66.3379 66.2761 66.3209 66.7054 66.4197 67.0938C65.5881 66.3026 65.8589 64.9271 66.3874 64.3058C66.6938 63.9456 67.0013 63.5841 67.2081 63.1172C67.6729 62.0677 67.045 61.3305 66.3423 60.5056L66.3422 60.5055C66.0676 60.1832 65.7816 59.8474 65.5449 59.4744C64.5412 57.8925 65.0563 55.3696 66.0222 53.9743C66.7598 52.9088 67.8699 51.1546 67.0491 49.7247C67.5553 49.8745 68.6523 50.7493 68.3971 53.2892C68.0877 56.3684 69.6484 56.1402 70.2504 55.6076C70.6198 55.2807 71.5228 54.1368 70.2504 51.9308C68.9781 49.7247 68.836 48.3563 69.4927 47.1307C69.5438 47.0355 69.5984 46.9359 69.6552 46.8323L69.6552 46.8323C70.3293 45.6035 71.3103 43.8152 70.2504 42.0444C70.8114 42.4529 71.9653 43.5065 71.7355 45.5654C71.4482 48.1392 71.4689 48.9528 72.5238 49.1002C73.5787 49.2477 74.6009 48.4175 74.6009 46.8242C74.6009 45.9336 74.299 45.1341 74.0007 44.3442C73.7654 43.721 73.5324 43.1039 73.4517 42.4529C73.308 41.293 73.657 39.5524 75.2166 39.0622C74.9566 39.6341 74.5927 41.113 75.2166 42.4529C75.3868 42.8186 75.5531 43.1414 75.7061 43.4385L75.7062 43.4385L75.7062 43.4386C76.2541 44.502 76.6314 45.2342 76.4068 46.4157L76.4036 46.4327C76.2311 47.0768 75.9062 49.3027 77.4329 48.9385C78.52 48.6791 78.0406 47.5091 77.6377 46.5258C77.6314 46.5105 77.6251 46.4953 77.6189 46.4801C77.6123 46.4638 77.6056 46.4475 77.599 46.4313L77.5989 46.4312C77.5296 46.2614 77.4702 46.1161 77.4329 46.0072C77.2073 45.3494 76.6531 42.2896 78.2537 41.4725C78.1716 42.7117 78.2985 45.0194 79.5671 44.7407C80.8356 44.462 80.585 43.106 80.3058 42.4529C80.2865 42.4078 80.2614 42.354 80.2327 42.2924C79.8996 41.5778 79.0732 39.8053 80.9625 38C80.812 38.8034 81.0228 40.5716 81.9886 42.0444C82.517 42.8503 82.226 43.7027 81.9338 44.5586C81.7587 45.0714 81.5832 45.5854 81.5832 46.0915C81.5832 46.3507 81.6398 46.5896 81.7473 46.7978C81.9082 47.1096 82.1573 47.3704 82.4055 47.6302C82.6034 47.8375 82.7244 48.0634 82.7847 48.3524C82.7794 48.6775 82.7225 48.9348 82.6286 49.1186C82.4102 49.5462 81.991 49.8811 81.3144 50.057C80.718 49.7038 80.0371 49.4809 79.2398 49.5759C77.7193 49.7572 76.7353 51.074 76.0641 52.3298C75.5148 53.3577 75.0572 54.5796 74.6557 55.6518C74.5493 55.9358 74.4469 56.2093 74.3477 56.4659C73.2372 59.3398 71.631 60.7168 69.4466 62.5895L69.4464 62.5897C68.9628 63.0043 68.4509 63.4432 67.9097 63.928C67.1853 64.5769 66.7132 65.2052 66.4956 65.826Z"
      fill="#ED1C24" />
  </g>
  <path
    d="M37.5894 54.0668V16.3282H40.007V54.0668H37.5894ZM44.002 28.7849C43.8841 27.5957 43.3779 26.6719 42.4836 26.0135C41.5893 25.355 40.3756 25.0258 38.8424 25.0258C37.8007 25.0258 36.9211 25.1732 36.2037 25.468C35.4862 25.753 34.9359 26.151 34.5526 26.6621C34.1791 27.1731 33.9924 27.753 33.9924 28.4016C33.9728 28.9421 34.0858 29.4139 34.3315 29.8168C34.587 30.2197 34.9359 30.5686 35.3781 30.8635C35.8204 31.1485 36.3314 31.3991 36.9113 31.6153C37.4911 31.8217 38.1102 31.9986 38.7687 32.146L41.4812 32.7946C42.7981 33.0895 44.0069 33.4826 45.1076 33.974C46.2083 34.4653 47.1616 35.0697 47.9675 35.7872C48.7734 36.5046 49.3974 37.3498 49.8397 38.3227C50.2918 39.2957 50.5227 40.4111 50.5326 41.6691C50.5227 43.5167 50.051 45.1186 49.1174 46.4749C48.1935 47.8213 46.857 48.8679 45.1076 49.6149C43.3681 50.3519 41.2699 50.7205 38.8129 50.7205C36.3756 50.7205 34.2528 50.347 32.4445 49.6001C30.6461 48.8532 29.2407 47.7476 28.2284 46.2832C27.226 44.8091 26.7002 42.986 26.6511 40.8141H32.8278C32.8966 41.8263 33.1865 42.6715 33.6976 43.3496C34.2185 44.0179 34.9113 44.5241 35.7762 44.868C36.6508 45.2022 37.6385 45.3693 38.7392 45.3693C39.8203 45.3693 40.7588 45.212 41.5549 44.8975C42.3608 44.583 42.9848 44.1457 43.4271 43.5855C43.8693 43.0253 44.0904 42.3816 44.0904 41.6544C44.0904 40.9762 43.889 40.4062 43.486 39.9443C43.0929 39.4824 42.5131 39.0893 41.7465 38.765C40.9898 38.4407 40.0611 38.1458 38.9604 37.8805L35.673 37.055C33.1276 36.4358 31.1178 35.4678 29.6436 34.1509C28.1695 32.8339 27.4373 31.06 27.4471 28.8291C27.4373 27.0011 27.9238 25.4041 28.9065 24.0381C29.8991 22.672 31.2603 21.6057 32.99 20.8391C34.7197 20.0726 36.6852 19.6893 38.8866 19.6893C41.1274 19.6893 43.0831 20.0726 44.7538 20.8391C46.4344 21.6057 47.7415 22.672 48.6751 24.0381C49.6087 25.4041 50.0903 26.9864 50.1198 28.7849H44.002Z"
    fill="#ED1C24" />
  <defs>
    <clipPath id="clip0_548_2020">
      <rect width="21" height="30" fill="white" transform="translate(65 38)" />
    </clipPath>
  </defs>
</svg>