<svg width="100%" height="100%" viewBox="0 0 85 84" fill="none" xmlns="http://www.w3.org/2000/svg">
  <path fill-rule="evenodd" clip-rule="evenodd"
    d="M15.1732 0H62.9576C71.3225 0 78.1308 6.79643 78.1308 15.1468V34.0282C78.0609 34.0275 77.991 34.0272 77.921 34.0272C76.2573 34.0272 74.6354 34.2054 73.073 34.5437V15.1468C73.073 9.57615 68.5351 5.04894 62.9576 5.04894H15.1732C9.59284 5.04894 5.05774 9.57896 5.05774 15.1468V56.694C5.05774 62.2646 9.59565 66.7918 15.1732 66.7918H27.9159C28.6633 66.7918 29.3742 67.1256 29.8547 67.6979L38.849 78.4493H38.9052H39.2845L48.2789 67.6979C48.7566 67.1256 49.4675 66.7918 50.2177 66.7918H57.4114C58.3044 68.626 59.4361 70.3224 60.7662 71.8408H51.4006L43.1621 81.6862C42.1478 82.9008 40.6529 83.5992 39.0654 83.5992C37.4778 83.5992 35.983 82.9008 34.9658 81.6862L26.7301 71.8408H15.1732C6.80827 71.8408 0 65.0472 0 56.694V15.1468C0 6.79643 6.80546 0 15.1732 0Z"
    fill="#ED1C24" />
  <g clip-path="url(#clip0_548_2006)">
    <path
      d="M84.5364 57.0496C85.7865 53.3165 84.1978 52.5384 82.3818 52.4249C82.0169 52.4021 81.6665 52.263 81.4075 52.0061C80.423 51.0296 79.5438 50.2484 78.3383 50.3921C76.1918 50.6481 75.1036 54.2109 74.1181 56.7616C72.6711 60.5063 70.3559 61.9467 67.4619 64.5392C66.1225 65.7391 66.01 66.6112 66.3399 67.189C66.8041 68.0018 67.9418 68.0126 68.8787 67.9452C77.1104 67.3525 82.9841 61.6849 84.5364 57.0496Z"
      fill="#ED1C24" />
    <path
      d="M81.564 45.0415C83.3378 48.7969 81.9332 50.1772 80.9519 50.4177C80.9235 50.4246 80.9079 50.4548 80.9203 50.4813C81.2741 51.2387 82.2148 52.3345 83.4375 51.5176C83.4437 51.5135 83.4491 51.5076 83.4526 51.5011C85.4335 47.8379 83.1226 45.6637 81.6213 44.9787C81.5829 44.9611 81.546 45.0034 81.564 45.0415Z"
      fill="#ED1C24" />
    <path fill-rule="evenodd" clip-rule="evenodd"
      d="M65.4956 65.826C65.3379 66.2761 65.3209 66.7054 65.4197 67.0938C64.5881 66.3026 64.8589 64.9271 65.3874 64.3058C65.6938 63.9456 66.0013 63.5841 66.2081 63.1172C66.6729 62.0677 66.045 61.3305 65.3423 60.5056L65.3422 60.5055C65.0676 60.1832 64.7816 59.8474 64.5449 59.4744C63.5412 57.8925 64.0563 55.3696 65.0222 53.9743C65.7598 52.9088 66.8699 51.1546 66.0491 49.7247C66.5553 49.8745 67.6523 50.7493 67.3971 53.2892C67.0877 56.3684 68.6484 56.1402 69.2504 55.6076C69.6198 55.2807 70.5228 54.1368 69.2504 51.9308C67.9781 49.7247 67.836 48.3563 68.4927 47.1307C68.5438 47.0355 68.5984 46.9359 68.6552 46.8323L68.6552 46.8323C69.3293 45.6035 70.3103 43.8152 69.2504 42.0444C69.8114 42.4529 70.9653 43.5065 70.7355 45.5654C70.4482 48.1392 70.4689 48.9528 71.5238 49.1002C72.5787 49.2477 73.6009 48.4175 73.6009 46.8242C73.6009 45.9336 73.299 45.1341 73.0007 44.3442C72.7654 43.721 72.5324 43.1039 72.4517 42.4529C72.308 41.293 72.657 39.5524 74.2166 39.0622C73.9566 39.6341 73.5927 41.113 74.2166 42.4529C74.3868 42.8186 74.5531 43.1414 74.7061 43.4385L74.7062 43.4385L74.7062 43.4386C75.2541 44.502 75.6314 45.2342 75.4068 46.4157L75.4036 46.4327C75.2311 47.0768 74.9062 49.3027 76.4329 48.9385C77.52 48.6791 77.0406 47.5091 76.6377 46.5258C76.6314 46.5105 76.6251 46.4953 76.6189 46.4801C76.6123 46.4638 76.6056 46.4475 76.599 46.4313L76.5989 46.4312C76.5296 46.2614 76.4702 46.1161 76.4329 46.0072C76.2073 45.3494 75.6531 42.2896 77.2537 41.4725C77.1716 42.7117 77.2985 45.0194 78.5671 44.7407C79.8356 44.462 79.585 43.106 79.3058 42.4529C79.2865 42.4078 79.2614 42.354 79.2327 42.2924C78.8996 41.5778 78.0732 39.8053 79.9625 38C79.812 38.8034 80.0228 40.5716 80.9886 42.0444C81.517 42.8503 81.226 43.7027 80.9338 44.5586C80.7587 45.0714 80.5832 45.5854 80.5832 46.0915C80.5832 46.3507 80.6398 46.5896 80.7473 46.7978C80.9082 47.1096 81.1573 47.3704 81.4055 47.6302C81.6034 47.8375 81.7244 48.0634 81.7847 48.3524C81.7794 48.6775 81.7225 48.9348 81.6286 49.1186C81.4102 49.5462 80.991 49.8811 80.3144 50.057C79.718 49.7038 79.0371 49.4809 78.2398 49.5759C76.7193 49.7572 75.7353 51.074 75.0641 52.3298C74.5148 53.3577 74.0572 54.5796 73.6557 55.6518C73.5493 55.9358 73.4469 56.2093 73.3477 56.4659C72.2372 59.3398 70.631 60.7168 68.4466 62.5895L68.4464 62.5897C67.9628 63.0043 67.4509 63.4432 66.9097 63.928C66.1853 64.5769 65.7132 65.2052 65.4956 65.826Z"
      fill="#ED1C24" />
  </g>
  <path
    d="M39.8379 48.0246V46.2616C39.8379 44.8469 40.1427 43.541 40.7521 42.3439C41.3724 41.1468 42.2702 40.1837 43.4455 39.4546C44.6208 38.7254 46.0519 38.3609 47.7387 38.3609C49.469 38.3609 50.9218 38.72 52.0972 39.4383C53.2834 40.1565 54.1812 41.1142 54.7906 42.3113C55.4 43.5083 55.7047 44.8251 55.7047 46.2616V48.0246C55.7047 49.4393 55.3946 50.7452 54.7743 51.9423C54.1649 53.1394 53.267 54.1025 52.0808 54.8317C50.8946 55.5608 49.4473 55.9254 47.7387 55.9254C46.0301 55.9254 44.5882 55.5608 43.4129 54.8317C42.2376 54.1025 41.3452 53.1394 40.7358 51.9423C40.1372 50.7452 39.8379 49.4393 39.8379 48.0246ZM45.5186 46.2616V48.0246C45.5186 48.6449 45.671 49.2598 45.9757 49.8692C46.2913 50.4677 46.879 50.767 47.7387 50.767C48.6419 50.767 49.235 50.4732 49.518 49.8855C49.8118 49.2979 49.9587 48.6776 49.9587 48.0246V46.2616C49.9587 45.6087 49.8227 44.9775 49.5506 44.3681C49.2786 43.7586 48.6746 43.4539 47.7387 43.4539C46.879 43.4539 46.2913 43.7586 45.9757 44.3681C45.671 44.9775 45.5186 45.6087 45.5186 46.2616ZM22.3388 28.893V27.1301C22.3388 25.6936 22.6489 24.3768 23.2692 23.1797C23.9004 21.9826 24.8037 21.0249 25.979 20.3067C27.1543 19.5884 28.5745 19.2293 30.2395 19.2293C31.9698 19.2293 33.4227 19.5884 34.598 20.3067C35.7842 21.0249 36.682 21.9826 37.2914 23.1797C37.9008 24.3768 38.2056 25.6936 38.2056 27.1301V28.893C38.2056 30.3295 37.8954 31.6409 37.2751 32.8271C36.6657 34.0133 35.7679 34.9601 34.5817 35.6674C33.3955 36.3748 31.9481 36.7285 30.2395 36.7285C28.5309 36.7285 27.089 36.3694 25.9137 35.6511C24.7384 34.9329 23.846 33.9806 23.2366 32.7944C22.638 31.6082 22.3388 30.3078 22.3388 28.893ZM28.0848 27.1301V28.893C28.0848 29.546 28.2371 30.1663 28.5418 30.754C28.8465 31.3416 29.4124 31.6354 30.2395 31.6354C31.1428 31.6354 31.7359 31.3416 32.0188 30.754C32.3126 30.1663 32.4596 29.546 32.4596 28.893V27.1301C32.4596 26.4771 32.3235 25.8459 32.0515 25.2365C31.7794 24.6271 31.1754 24.3224 30.2395 24.3224C29.3798 24.3224 28.803 24.6379 28.5092 25.2691C28.2262 25.8894 28.0848 26.5098 28.0848 27.1301ZM25.1138 54.293L48.0978 20.8617H52.7338L29.7498 54.293H25.1138Z"
    fill="#ED1C24" />
  <defs>
    <clipPath id="clip0_548_2006">
      <rect width="21" height="30" fill="white" transform="translate(64 38)" />
    </clipPath>
  </defs>
</svg>