<svg width="100%" height="100%" viewBox="0 0 100 101" fill="none" xmlns="http://www.w3.org/2000/svg">
  <g clip-path="url(#clip0_320_1874)">
    <path fill-rule="evenodd" clip-rule="evenodd"
      d="M54.1224 45.5882C56.0387 39.7678 53.6844 38.4689 50.9151 38.2522C50.2448 38.1998 49.6007 37.942 49.1232 37.4627C47.6305 35.9647 46.2785 34.7887 44.4415 35.0116C41.4493 35.3744 39.7739 39.9221 38.3538 43.7763L38.3537 43.7769C38.1827 44.241 38.0154 44.695 37.8499 45.1305C35.9907 50.0246 33.2138 52.4411 29.7709 55.4373C29.0287 56.0832 28.2553 56.7562 27.4537 57.4867C25.6207 59.1569 25.2588 60.4273 25.5439 61.3336C26.0679 62.9997 28.3345 63.0152 30.0553 62.8667C42.7085 61.7742 51.7224 52.8777 54.1224 45.5882ZM41.4599 41.9721C41.9316 39.5843 43.3023 37.8918 45.4051 37.8918C45.643 37.8918 45.8358 38.087 45.8358 38.3279C45.8358 38.5687 45.643 38.7639 45.4051 38.7639C43.8918 38.7639 42.7369 39.9546 42.3045 42.1431C42.2579 42.3793 42.031 42.5325 41.7977 42.4852C41.5645 42.438 41.4132 42.2082 41.4599 41.9721ZM41.2881 45.381C41.3387 45.1456 41.1912 44.9134 40.9587 44.8622C40.7264 44.811 40.497 44.9604 40.4464 45.1957L40.4461 45.1969L40.444 45.2063L40.4382 45.2312L40.4339 45.2487C40.4245 45.2871 40.4097 45.3454 40.3886 45.4214C40.3465 45.5733 40.2797 45.7953 40.1822 46.0688C39.987 46.6165 39.6703 47.3671 39.1862 48.1739C39.0627 48.3797 39.1274 48.6479 39.3307 48.773C39.534 48.8981 39.7989 48.8326 39.9224 48.6267C40.4423 47.7603 40.7821 46.9549 40.9925 46.3648C41.0977 46.0695 41.1708 45.8273 41.218 45.6571C41.2416 45.572 41.2587 45.5049 41.2701 45.4581C41.2719 45.4507 41.2736 45.4438 41.2752 45.4375C41.2766 45.4313 41.2779 45.4257 41.2791 45.4205L41.2831 45.4034L41.2866 45.388L41.2876 45.3834L41.2879 45.3819L41.2881 45.381ZM48.7794 47.1201C48.996 47.2197 49.0917 47.4782 48.9933 47.6975C48.6034 48.5659 47.8405 49.9453 46.8059 51.2965C45.7745 52.6435 44.4466 53.9976 42.9177 54.7716C42.7049 54.8793 42.4462 54.792 42.3398 54.5766C42.2334 54.3612 42.3197 54.0993 42.5324 53.9915C43.8964 53.3011 45.1299 52.0619 46.1251 50.7622C47.1169 49.4669 47.8457 48.1462 48.2091 47.3366C48.3075 47.1174 48.5629 47.0204 48.7794 47.1201ZM37.61 58.0129C37.7873 57.8523 37.8024 57.5767 37.6439 57.3972C37.4852 57.2177 37.2129 57.2024 37.0357 57.3629C36.053 58.2531 34.0938 59.3061 31.4229 59.3061C31.1851 59.3061 30.9923 59.5013 30.9923 59.7421C30.9923 59.983 31.1851 60.1782 31.4229 60.1782C34.3151 60.1782 36.4766 59.0396 37.61 58.0129Z"
      fill="#ED1C24" />
    <path
      d="M49.4957 26.5422C52.2349 32.465 50.0699 34.6561 48.5406 35.0482C48.4885 35.0616 48.4597 35.1184 48.4825 35.1677C49.04 36.3698 50.5041 38.0904 52.4049 36.8013C52.4161 36.7937 52.4261 36.7826 52.4325 36.7705C55.5102 30.9781 51.9469 27.5299 49.6018 26.4258C49.5313 26.3926 49.4627 26.4708 49.4957 26.5422Z"
      fill="#ED1C24" />
  </g>
  <path
    d="M94.7349 44.5983L88.0291 42.0465C87.0407 37.5534 85.2666 33.3212 82.7448 29.4437L85.6635 22.9465C85.9043 22.4117 85.7864 21.7852 85.3673 21.3708L79.0937 15.1685C78.6746 14.7542 78.0409 14.6376 77.4999 14.8757L70.9261 17.7622C67.0029 15.2691 62.7231 13.5151 58.1824 12.539L55.5992 5.90739C55.3867 5.36056 54.8557 5 54.2623 5H45.3894C44.797 5 44.2661 5.36056 44.0525 5.90739L41.4703 12.539C36.9296 13.5151 32.6488 15.2691 28.7256 17.7622L22.1518 14.8757C21.6108 14.6376 20.9771 14.7542 20.558 15.1685L14.2844 21.3718C13.8653 21.7862 13.7474 22.4127 13.9882 22.9475L16.9079 29.4467C14.3861 33.3242 12.612 37.5564 11.6246 42.0465L4.91782 44.5983C4.36471 44.8085 4 45.3334 4 45.9201V54.6921C4 55.2778 4.36471 55.8027 4.91782 56.0139L11.6236 58.5657C12.612 63.0588 14.3861 67.291 16.9079 71.1685L13.9892 77.6657C13.7484 78.2005 13.8663 78.827 14.2854 79.2414L20.56 85.4437C20.9791 85.8581 21.6118 85.9746 22.1538 85.7365L28.7277 82.85C32.6508 85.3421 36.9306 87.0971 41.4713 88.0732L44.0535 94.7048C44.2661 95.2516 44.797 95.6122 45.3904 95.6122H54.2633C54.8557 95.6122 55.3867 95.2516 55.6002 94.7048L58.1814 88.0752C62.7262 87.0981 67.007 85.3441 70.9291 82.851L77.5009 85.7365C78.0419 85.9746 78.6756 85.8581 79.0947 85.4437L85.3683 79.2404C85.7874 78.826 85.9053 78.1995 85.6645 77.6647L82.7448 71.1656C85.2656 67.287 87.0407 63.0558 88.0281 58.5667L94.7359 56.0139C95.289 55.8037 95.6537 55.2788 95.6537 54.6921V45.9201C95.6527 45.3334 95.288 44.8085 94.7349 44.5983ZM92.7884 53.72L86.269 56.2011C85.8096 56.3764 85.4731 56.7719 85.3784 57.25C84.4525 61.9124 82.6189 66.284 79.9289 70.2452C79.6549 70.6496 79.6096 71.1646 79.809 71.6088L82.6471 77.9256L77.7638 82.7534L71.3764 79.9486C70.9271 79.7514 70.4052 79.7962 69.9972 80.0671C65.9924 82.7255 61.5696 84.5383 56.8495 85.4547C56.3659 85.5483 55.966 85.881 55.7886 86.3352L53.28 92.7785H46.3737L43.8641 86.3332C43.6868 85.879 43.2868 85.5463 42.8032 85.4527C38.0872 84.5373 33.6653 82.7245 29.6586 80.0651C29.2495 79.7942 28.7287 79.7494 28.2793 79.9466L21.8899 82.7524L17.0066 77.9246L19.8437 71.6098C20.0432 71.1646 19.9978 70.6496 19.7238 70.2462C17.0348 66.288 15.2012 61.9144 14.2743 57.248C14.1796 56.7699 13.8431 56.3744 13.3837 56.1991L6.86629 53.719V46.8912L13.3857 44.4101C13.8451 44.2348 14.1816 43.8394 14.2763 43.3613C15.2022 38.6978 17.0358 34.3252 19.7258 30.366C19.9998 29.9616 20.0452 29.4467 19.8457 29.0024L17.0086 22.6856L21.8919 17.8578L28.2813 20.6636C28.7317 20.8608 29.2515 20.816 29.6606 20.5451C33.6673 17.8857 38.0892 16.0739 42.8052 15.1576C43.2888 15.0639 43.6888 14.7313 43.8661 14.2771L46.3757 7.83172H53.282L55.7917 14.2771C55.969 14.7313 56.3689 15.0639 56.8525 15.1576C61.5686 16.0729 65.9904 17.8857 69.9972 20.5451C70.4062 20.816 70.9271 20.8608 71.3764 20.6636L77.7659 17.8578L82.6491 22.6856L79.8121 29.0004C79.6126 29.4457 79.6579 29.9606 79.932 30.364C82.6209 34.3232 84.4545 38.6958 85.3814 43.3623C85.4761 43.8404 85.8126 44.2358 86.272 44.4111L92.7894 46.8912L92.7884 53.72Z"
    fill="#ED1C24" stroke="#ED1C24" stroke-width="1.09231" />
  <path
    d="M49.8261 22.7072C34.2953 22.7072 21.7051 35.2974 21.7051 50.8282C21.7051 53.3408 22.0346 55.7765 22.6528 58.0943M37.2711 75.9978C41.0502 77.8866 45.314 78.9492 49.8261 78.9492C65.3569 78.9492 77.9471 66.359 77.9471 50.8282C77.9471 45.4487 76.4366 40.422 73.8166 36.1491"
    stroke="#ED1C24" stroke-width="3.27693" stroke-linecap="round" stroke-linejoin="round" />
  <defs>
    <clipPath id="clip0_320_1874">
      <rect width="30" height="37" fill="white" transform="translate(25 26)" />
    </clipPath>
  </defs>
</svg>