<svg width="100%" height="100%" viewBox="0 0 499 150" fill="none" xmlns="http://www.w3.org/2000/svg">
  <mask id="path-1-inside-1_548_1972" fill="white">
    <path
      d="M64.529 44.3966C77.2307 47.3864 88.3637 54.9992 95.7578 65.7509C103.152 76.5025 106.277 89.6225 104.524 102.553C102.771 115.484 96.2655 127.298 86.2757 135.693C76.2859 144.088 63.5277 148.461 50.4885 147.961C37.4493 147.462 25.0636 142.124 15.7459 132.988C6.42816 123.853 0.846353 111.576 0.0885942 98.5487C-0.669165 85.5219 3.45144 72.6798 11.6471 62.5259C19.8428 52.372 31.5261 45.634 44.4194 43.6256L46.054 54.1194C35.7689 55.7215 26.4491 61.0964 19.9113 69.1963C13.3736 77.2962 10.0865 87.5404 10.691 97.932C11.2955 108.324 15.7481 118.118 23.1809 125.405C30.6137 132.692 40.4939 136.95 50.8954 137.349C61.2969 137.748 71.4742 134.259 79.4431 127.562C87.4121 120.865 92.6016 111.441 94 101.126C95.3984 90.8115 92.9055 80.3456 87.0071 71.7689C81.1088 63.1922 72.2278 57.1194 62.0956 54.7344L64.529 44.3966Z" />
  </mask>
  <path
    d="M64.529 44.3966C77.2307 47.3864 88.3637 54.9992 95.7578 65.7509C103.152 76.5025 106.277 89.6225 104.524 102.553C102.771 115.484 96.2655 127.298 86.2757 135.693C76.2859 144.088 63.5277 148.461 50.4885 147.961C37.4493 147.462 25.0636 142.124 15.7459 132.988C6.42816 123.853 0.846353 111.576 0.0885942 98.5487C-0.669165 85.5219 3.45144 72.6798 11.6471 62.5259C19.8428 52.372 31.5261 45.634 44.4194 43.6256L46.054 54.1194C35.7689 55.7215 26.4491 61.0964 19.9113 69.1963C13.3736 77.2962 10.0865 87.5404 10.691 97.932C11.2955 108.324 15.7481 118.118 23.1809 125.405C30.6137 132.692 40.4939 136.95 50.8954 137.349C61.2969 137.748 71.4742 134.259 79.4431 127.562C87.4121 120.865 92.6016 111.441 94 101.126C95.3984 90.8115 92.9055 80.3456 87.0071 71.7689C81.1088 63.1922 72.2278 57.1194 62.0956 54.7344L64.529 44.3966Z"
    stroke="white" stroke-width="20" mask="url(#path-1-inside-1_548_1972)" />
  <g clip-path="url(#clip0_548_1972)">
    <path
      d="M86.6522 55.2412C90.2836 44.4151 85.6689 42.1585 80.3938 41.8295C79.3337 41.7634 78.316 41.36 77.5635 40.6149C74.704 37.7831 72.1499 35.5176 68.6482 35.9344C62.4131 36.6767 59.2523 47.009 56.3896 54.4058C52.1864 65.2656 45.4614 69.4426 37.055 76.961C33.1643 80.4408 32.8376 82.9698 33.7959 84.6452C35.1442 87.0026 38.449 87.0339 41.1704 86.8383C65.0815 85.1195 82.1433 68.6834 86.6522 55.2412Z"
      fill="#ED1C24" />
    <path
      d="M78.021 20.4186C83.1733 31.3092 79.0935 35.3121 76.243 36.0096C76.1605 36.0297 76.1152 36.1173 76.1511 36.1939C77.1788 38.3903 79.9114 41.5682 83.4631 39.1992C83.4809 39.1874 83.4966 39.1702 83.5067 39.1514C89.2608 28.5281 82.5482 22.2231 78.1874 20.2365C78.0757 20.1855 77.9687 20.308 78.021 20.4186Z"
      fill="#ED1C24" />
    <path fill-rule="evenodd" clip-rule="evenodd"
      d="M31.3444 80.6954C30.8863 82.0006 30.837 83.2456 31.1238 84.3719C28.7083 82.0776 29.495 78.0886 31.0301 76.2868C31.9202 75.2422 32.8134 74.1938 33.4141 72.8398C34.7643 69.7963 32.9403 67.6586 30.899 65.2663L30.8988 65.2661C30.1011 64.3312 29.2704 63.3576 28.5829 62.2758C25.6673 57.6882 27.1634 50.3717 29.9692 46.3255C32.1118 43.2356 35.3365 38.1483 32.9521 34.0018C34.4225 34.4362 37.6089 36.9729 36.8677 44.3386C35.9691 53.2683 40.5026 52.6066 42.2512 51.062C43.3242 50.1141 45.947 46.7969 42.2512 40.3993C38.5555 34.0018 38.1428 30.0332 40.0502 26.4791C40.1985 26.2028 40.3572 25.914 40.5222 25.6136L40.5223 25.6135C42.4803 22.0502 45.3298 16.8642 42.2512 11.7288C43.8806 12.9135 47.2326 15.9687 46.5651 21.9397C45.7305 29.4035 45.7907 31.763 48.855 32.1906C51.9191 32.6182 54.8884 30.2107 54.8884 25.5902C54.8884 23.0075 54.0113 20.6888 53.1449 18.3983C52.4614 16.591 51.7845 14.8014 51.5503 12.9135C51.1329 9.54969 52.1464 4.50198 56.6767 3.0803C55.9217 4.73893 54.8646 9.02766 56.6767 12.9135C57.1712 13.9741 57.6543 14.9102 58.0988 15.7715L58.0989 15.7716L58.099 15.7719C59.6905 18.8557 60.7863 20.9791 60.134 24.4055L60.1247 24.455C59.6238 26.3228 58.6799 32.7779 63.1145 31.7216C66.2723 30.9694 64.8797 27.5764 63.7094 24.7249C63.6912 24.6806 63.673 24.6365 63.655 24.5924C63.6356 24.545 63.6163 24.4979 63.597 24.4509L63.5969 24.4505C63.3954 23.9579 63.223 23.5368 63.1145 23.2208C62.4594 21.3134 60.8493 12.4397 65.4989 10.0702C65.2605 13.6639 65.629 20.3562 69.3138 19.548C72.9987 18.7399 72.2707 14.8074 71.4598 12.9135C71.4036 12.7826 71.3308 12.6265 71.2474 12.4479C70.2798 10.3757 67.8794 5.2354 73.3673 0C72.9302 2.32996 73.5424 7.45766 76.3477 11.7288C77.8826 14.0657 77.0373 16.5377 76.1885 19.0199C75.68 20.507 75.1703 21.9978 75.1703 23.4653C75.1703 24.2171 75.3348 24.9099 75.6469 25.5137C76.1142 26.4179 76.8378 27.1743 77.5587 27.9277C78.1336 28.5286 78.4852 29.1838 78.6603 30.0219C78.6451 30.9646 78.4796 31.711 78.207 32.2439C77.5724 33.4841 76.3549 34.455 74.3894 34.9653C72.6571 33.941 70.6792 33.2945 68.3632 33.5702C63.9467 34.0959 61.0883 37.9145 59.1386 41.5565C57.5429 44.5372 56.2137 48.0809 55.0474 51.1901C54.7385 52.0138 54.4409 52.807 54.1529 53.5512C50.9272 61.8855 46.2615 65.8788 39.9163 71.3096L39.9157 71.3101C38.511 72.5124 37.0239 73.7851 35.4519 75.1911C33.3478 77.073 31.9765 78.8952 31.3444 80.6954Z"
      fill="#ED1C24" />
  </g>
  <path d="M97.999 96H396.999" stroke="white" stroke-width="10" />
  <path d="M353.821 82.3867V132.387H331.821V82.3867H353.821Z" fill="#ED1C24" />
  <path d="M353.513 49.7832V74.0771H331.57V49.7832H353.513Z" fill="#ED1C24" />
  <path
    d="M321.069 90.9358C321.069 100.025 319.302 107.692 315.767 113.937C312.233 120.155 307.463 124.872 301.456 128.088C295.45 131.277 288.754 132.872 281.366 132.872C273.924 132.872 267.201 131.264 261.195 128.048C255.215 124.806 250.459 120.076 246.924 113.857C243.416 107.612 241.662 99.9714 241.662 90.9358C241.662 81.847 243.416 74.1934 246.924 67.9748C250.459 61.7296 255.215 57.0124 261.195 53.8234C267.201 50.6078 273.924 49 281.366 49C288.754 49 295.45 50.6078 301.456 53.8234C307.463 57.0124 312.233 61.7296 315.767 67.9748C319.302 74.1934 321.069 81.847 321.069 90.9358ZM298.267 90.9358C298.267 86.0459 297.616 81.9268 296.314 78.5783C295.039 75.2032 293.138 72.652 290.614 70.9246C288.116 69.1706 285.033 68.2937 281.366 68.2937C277.698 68.2937 274.602 69.1706 272.078 70.9246C269.579 72.652 267.679 75.2032 266.377 78.5783C265.102 81.9268 264.464 86.0459 264.464 90.9358C264.464 95.8256 265.102 99.9581 266.377 103.333C267.679 106.682 269.579 109.233 272.078 110.987C274.602 112.714 277.698 113.578 281.366 113.578C285.033 113.578 288.116 112.714 290.614 110.987C293.138 109.233 295.039 106.682 296.314 103.333C297.616 99.9581 298.267 95.8256 298.267 90.9358Z"
    fill="#ED1C24" />
  <path
    d="M166.999 131.755V50.1152H202.238C208.297 50.1152 213.599 51.2181 218.143 53.4239C222.688 55.6296 226.222 58.8054 228.747 62.9511C231.271 67.0968 232.534 72.0664 232.534 77.8598C232.534 83.7064 231.231 88.6361 228.627 92.649C226.049 96.6618 222.422 99.6914 217.745 101.738C213.094 103.784 207.659 104.807 201.441 104.807H180.393V87.5864H196.976C199.58 87.5864 201.799 87.2675 203.633 86.6297C205.493 85.9653 206.915 84.9156 207.898 83.4805C208.908 82.0454 209.413 80.1719 209.413 77.8598C209.413 75.5212 208.908 73.6211 207.898 72.1594C206.915 70.6712 205.493 69.5816 203.633 68.8907C201.799 68.1731 199.58 67.8144 196.976 67.8144H189.163V131.755H166.999ZM214.835 94.2834L235.244 131.755H211.167L191.236 94.2834H214.835Z"
    fill="#ED1C24" />
  <path d="M234.999 96L284.999 96" stroke="white" stroke-width="10" />
  <path d="M327.999 96L377.999 96" stroke="white" stroke-width="10" />
  <mask id="path-12-inside-2_548_1972" fill="white">
    <path fill-rule="evenodd" clip-rule="evenodd"
      d="M454.136 81.3194C447.3 76.5115 442.834 68.5628 442.834 59.5709C442.834 44.8962 454.73 33 469.405 33C484.079 33 495.975 44.8962 495.975 59.5709C495.975 68.563 491.509 76.5118 484.673 81.3195L498.81 149.642H439.999L454.136 81.3194Z" />
  </mask>
  <path
    d="M454.136 81.3194L459.889 73.14L465.259 76.9168L463.928 83.3455L454.136 81.3194ZM484.673 81.3195L474.881 83.3457L473.55 76.9169L478.92 73.1401L484.673 81.3195ZM498.81 149.642L508.602 147.616L511.09 159.642H498.81V149.642ZM439.999 149.642V159.642H427.718L430.207 147.616L439.999 149.642ZM452.834 59.5709C452.834 65.1704 455.602 70.1245 459.889 73.14L448.383 89.4988C438.999 82.8986 432.834 71.9552 432.834 59.5709H452.834ZM469.405 43C460.253 43 452.834 50.419 452.834 59.5709H432.834C432.834 39.3733 449.207 23 469.405 23V43ZM485.975 59.5709C485.975 50.419 478.556 43 469.405 43V23C489.602 23 505.975 39.3733 505.975 59.5709H485.975ZM478.92 73.1401C483.207 70.1246 485.975 65.1705 485.975 59.5709H505.975C505.975 71.9554 499.81 82.8989 490.426 89.499L478.92 73.1401ZM489.017 151.668L474.881 83.3457L494.466 79.2934L508.602 147.616L489.017 151.668ZM439.999 139.642H498.81V159.642H439.999V139.642ZM463.928 83.3455L449.792 151.668L430.207 147.616L444.343 79.2932L463.928 83.3455Z"
    fill="white" mask="url(#path-12-inside-2_548_1972)" />
  <defs>
    <clipPath id="clip0_548_1972">
      <rect width="61" height="87" fill="white" transform="translate(27)" />
    </clipPath>
  </defs>
</svg>