<svg width="100%" height="100%" viewBox="0 0 19 15" fill="none" xmlns="http://www.w3.org/2000/svg">
  <path
    d="M17.3808 0.132435C17.3808 0.132435 19.1383 -0.516848 18.9913 1.05986C18.9429 1.70914 18.5036 3.98185 18.1616 6.43969L16.99 13.7211C16.99 13.7211 16.8922 14.7878 16.0133 14.9734C15.1348 15.1585 13.8166 14.3241 13.5723 14.1385C13.3768 13.9992 9.91075 11.9121 8.69025 10.8921C8.34825 10.6135 7.9574 10.0573 8.7391 9.40797L13.865 4.76999C14.4508 4.2137 15.0366 2.91514 12.5956 4.49185L5.76022 8.89754C5.76022 8.89754 4.97897 9.36168 3.51463 8.94426L0.340771 8.0164C0.340771 8.0164 -0.830879 7.32083 1.17088 6.62526C6.05336 4.44556 12.0586 2.21957 17.3799 0.132435H17.3808Z"
    fill="white" />
</svg>