<svg width="100%" height="100%" viewBox="0 0 456 131" fill="none" xmlns="http://www.w3.org/2000/svg">
  <g clip-path="url(#clip0_314_1764)">
    <path
      d="M31.58 86V56.531H19.895V46.1H56.717V56.531H45.032V86H31.58ZM60.2109 86V46.1H79.4199C83.1439 46.1 86.3549 46.708 89.0529 47.924C91.7889 49.14 93.8979 50.888 95.3799 53.168C96.8619 55.41 97.6029 58.07 97.6029 61.148C97.6029 64.226 96.8619 66.886 95.3799 69.128C93.8979 71.332 91.7889 73.023 89.0529 74.201C86.3549 75.379 83.1439 75.968 79.4199 75.968H67.6779L73.6629 70.439V86H60.2109ZM84.0939 86L74.2899 71.465H88.5399L98.4579 86H84.0939ZM73.6629 71.921L67.6779 65.822H78.5649C80.4269 65.822 81.7949 65.404 82.6689 64.568C83.5809 63.732 84.0369 62.592 84.0369 61.148C84.0369 59.704 83.5809 58.564 82.6689 57.728C81.7949 56.892 80.4269 56.474 78.5649 56.474H67.6779L73.6629 50.375V71.921ZM98.3506 86L115.793 46.1H129.017L146.459 86H132.551L119.669 52.484H124.913L112.031 86H98.3506ZM108.725 79.046L112.145 69.356H130.499L133.919 79.046H108.725ZM161.145 63.086H178.701V73.232H161.145V63.086ZM162.057 86H148.605V46.1H181.038V56.246H162.057V86ZM197.828 63.086H215.384V73.232H197.828V63.086ZM198.74 86H185.288V46.1H217.721V56.246H198.74V86ZM221.971 86V46.1H243.289C248.799 46.1 252.865 47.088 255.487 49.064C258.109 51.002 259.42 53.491 259.42 56.531C259.42 58.545 258.85 60.35 257.71 61.946C256.608 63.504 254.993 64.739 252.865 65.651C250.737 66.563 248.115 67.019 244.999 67.019L246.139 63.941C249.255 63.941 251.934 64.378 254.176 65.252C256.456 66.126 258.204 67.399 259.42 69.071C260.674 70.705 261.301 72.681 261.301 74.999C261.301 78.457 259.857 81.155 256.969 83.093C254.119 85.031 249.939 86 244.429 86H221.971ZM235.195 76.595H243.289C244.771 76.595 245.873 76.329 246.595 75.797C247.355 75.265 247.735 74.486 247.735 73.46C247.735 72.434 247.355 71.655 246.595 71.123C245.873 70.591 244.771 70.325 243.289 70.325H234.283V61.433H241.465C242.985 61.433 244.087 61.186 244.771 60.692C245.493 60.16 245.854 59.419 245.854 58.469C245.854 57.481 245.493 56.74 244.771 56.246C244.087 55.752 242.985 55.505 241.465 55.505H235.195V76.595ZM266.057 86V46.1H285.266C288.99 46.1 292.201 46.708 294.899 47.924C297.635 49.14 299.744 50.888 301.226 53.168C302.708 55.41 303.449 58.07 303.449 61.148C303.449 64.226 302.708 66.886 301.226 69.128C299.744 71.332 297.635 73.023 294.899 74.201C292.201 75.379 288.99 75.968 285.266 75.968H273.524L279.509 70.439V86H266.057ZM289.94 86L280.136 71.465H294.386L304.304 86H289.94ZM279.509 71.921L273.524 65.822H284.411C286.273 65.822 287.641 65.404 288.515 64.568C289.427 63.732 289.883 62.592 289.883 61.148C289.883 59.704 289.427 58.564 288.515 57.728C287.641 56.892 286.273 56.474 284.411 56.474H273.524L279.509 50.375V71.921ZM304.196 86L321.638 46.1H334.862L352.304 86H338.396L325.514 52.484H330.758L317.876 86H304.196ZM314.57 79.046L317.99 69.356H336.344L339.764 79.046H314.57ZM353.026 86V77.735L375.256 51.857L376.909 56.531H353.596V46.1H388.765V54.365L366.535 80.243L364.882 75.569H389.677V86H353.026ZM389.251 86L406.693 46.1H419.917L437.359 86H423.451L410.569 52.484H415.813L402.931 86H389.251ZM399.625 79.046L403.045 69.356H421.399L424.819 79.046H399.625Z"
      fill="white" />
  </g>
  <defs>
    <clipPath id="clip0_314_1764">
      <rect width="418" height="43" fill="white" transform="translate(19 45.1855)" />
    </clipPath>
  </defs>
</svg>