<svg width="89" height="120" viewBox="0 0 89 120" fill="none" xmlns="http://www.w3.org/2000/svg">
<circle cx="44.5" cy="75.5" r="43" fill="black" stroke="#ED1C24" stroke-width="3"/>
<mask id="path-2-outside-1_147_3195" maskUnits="userSpaceOnUse" x="26" y="-19" width="70" height="119" fill="black">
<rect fill="white" x="26" y="-19" width="70" height="119"/>
<path d="M59.52 80V28.36L64.16 32.76L46.08 45.24V33.12L64.16 20.6H72.52V80H59.52Z"/>
</mask>
<path d="M59.52 80V28.36L64.16 32.76L46.08 45.24V33.12L64.16 20.6H72.52V80H59.52Z" fill="#ED1C24"/>
<path d="M59.52 80H39.52V100H59.52V80ZM59.52 28.36L73.2818 13.8475L39.52 -18.168V28.36H59.52ZM64.16 32.76L75.5215 49.2196L95.8128 35.2131L77.9218 18.2475L64.16 32.76ZM46.08 45.24H26.08V83.3473L57.4415 61.6996L46.08 45.24ZM46.08 33.12L34.6939 16.6775L26.08 22.6424V33.12H46.08ZM64.16 20.6V0.599999H57.9112L52.7739 4.15746L64.16 20.6ZM72.52 20.6H92.52V0.599999H72.52V20.6ZM72.52 80V100H92.52V80H72.52ZM79.52 80V28.36H39.52V80H79.52ZM45.7582 42.8725L50.3982 47.2725L77.9218 18.2475L73.2818 13.8475L45.7582 42.8725ZM52.7985 16.3004L34.7185 28.7804L57.4415 61.6996L75.5215 49.2196L52.7985 16.3004ZM66.08 45.24V33.12H26.08V45.24H66.08ZM57.4661 49.5625L75.5461 37.0425L52.7739 4.15746L34.6939 16.6775L57.4661 49.5625ZM64.16 40.6H72.52V0.599999H64.16V40.6ZM52.52 20.6V80H92.52V20.6H52.52ZM72.52 60H59.52V100H72.52V60Z" fill="black" mask="url(#path-2-outside-1_147_3195)"/>
</svg>
