<svg width="89" height="120" viewBox="0 0 89 120" fill="none" xmlns="http://www.w3.org/2000/svg">
<circle cx="44.5" cy="75.5" r="43" fill="black" stroke="#ED1C24" stroke-width="3"/>
<mask id="path-2-outside-1_147_3201" maskUnits="userSpaceOnUse" x="25" y="0" width="80" height="122" fill="black">
<rect fill="white" x="25" width="80" height="122"/>
<path d="M45.92 80V73.04L62.28 52.64C63.96 50.5067 65.3067 48.6133 66.32 46.96C67.3333 45.3067 68.0533 43.8 68.48 42.44C68.9333 41.0533 69.16 39.7067 69.16 38.4C69.16 35.7067 68.3067 33.72 66.6 32.44C64.92 31.1333 62.16 30.48 58.32 30.48C55.9733 30.48 53.6533 30.6933 51.36 31.12C49.0667 31.52 47.0133 32.08 45.2 32.8V22.24C46.3733 21.8133 47.7733 21.44 49.4 21.12C51.0533 20.7733 52.7733 20.5067 54.56 20.32C56.3467 20.1333 58.0667 20.04 59.72 20.04C67.0267 20.04 72.56 21.4133 76.32 24.16C80.08 26.88 81.96 31.2133 81.96 37.16C81.96 39.16 81.6933 41.16 81.16 43.16C80.6533 45.1333 79.7733 47.2133 78.52 49.4C77.2933 51.56 75.6267 53.92 73.52 56.48L60.32 72.56L59.96 69.28H84.8V80H45.92Z"/>
</mask>
<path d="M45.92 80V73.04L62.28 52.64C63.96 50.5067 65.3067 48.6133 66.32 46.96C67.3333 45.3067 68.0533 43.8 68.48 42.44C68.9333 41.0533 69.16 39.7067 69.16 38.4C69.16 35.7067 68.3067 33.72 66.6 32.44C64.92 31.1333 62.16 30.48 58.32 30.48C55.9733 30.48 53.6533 30.6933 51.36 31.12C49.0667 31.52 47.0133 32.08 45.2 32.8V22.24C46.3733 21.8133 47.7733 21.44 49.4 21.12C51.0533 20.7733 52.7733 20.5067 54.56 20.32C56.3467 20.1333 58.0667 20.04 59.72 20.04C67.0267 20.04 72.56 21.4133 76.32 24.16C80.08 26.88 81.96 31.2133 81.96 37.16C81.96 39.16 81.6933 41.16 81.16 43.16C80.6533 45.1333 79.7733 47.2133 78.52 49.4C77.2933 51.56 75.6267 53.92 73.52 56.48L60.32 72.56L59.96 69.28H84.8V80H45.92Z" fill="#ED1C24"/>
<path d="M45.92 80H25.92V100H45.92V80ZM45.92 73.04L30.3176 60.5275L25.92 66.011V73.04H45.92ZM62.28 52.64L77.8824 65.1525L77.9379 65.0834L77.9927 65.0138L62.28 52.64ZM66.32 46.96L83.372 57.4112L83.372 57.4112L66.32 46.96ZM68.48 42.44L49.4701 36.2252L49.4329 36.339L49.3971 36.4532L68.48 42.44ZM66.6 32.44L54.3212 48.227L54.4597 48.3347L54.6 48.44L66.6 32.44ZM51.36 31.12L54.7965 50.8226L54.9074 50.8032L55.0182 50.7826L51.36 31.12ZM45.2 32.8H25.2V62.26L52.5806 51.3883L45.2 32.8ZM45.2 22.24L38.3652 3.44411L25.2 8.23142V22.24H45.2ZM49.4 21.12L53.2605 40.7439L53.3825 40.7199L53.5043 40.6943L49.4 21.12ZM54.56 20.32L52.4818 0.428265L52.4817 0.428269L54.56 20.32ZM76.32 24.16L64.5225 40.3099L64.56 40.3373L64.5976 40.3645L76.32 24.16ZM81.16 43.16L61.8353 38.0067L61.8114 38.0964L61.7883 38.1862L81.16 43.16ZM78.52 49.4L61.1682 39.4544L61.1484 39.4889L61.1288 39.5235L78.52 49.4ZM73.52 56.48L58.0768 43.7715L58.0691 43.7808L58.0614 43.7901L73.52 56.48ZM60.32 72.56L40.4394 74.742L45.6244 121.983L75.7786 85.2499L60.32 72.56ZM59.96 69.28V49.28H37.6448L40.0794 71.462L59.96 69.28ZM84.8 69.28H104.8V49.28H84.8V69.28ZM84.8 80V100H104.8V80H84.8ZM65.92 80V73.04H25.92V80H65.92ZM61.5224 85.5525L77.8824 65.1525L46.6776 40.1275L30.3176 60.5275L61.5224 85.5525ZM77.9927 65.0138C79.9811 62.4888 81.825 59.9353 83.372 57.4112L49.268 36.5088C48.7883 37.2913 47.9389 38.5245 46.5673 40.2662L77.9927 65.0138ZM83.372 57.4112C84.9578 54.8239 86.5049 51.7993 87.5629 48.4268L49.3971 36.4532C49.455 36.2684 49.5048 36.1364 49.5355 36.0597C49.5662 35.9827 49.582 35.9512 49.5746 35.9665C49.5674 35.9817 49.5411 36.0355 49.4898 36.129C49.4386 36.2223 49.3661 36.3487 49.268 36.5088L83.372 57.4112ZM87.4899 48.6548C88.5236 45.493 89.16 42.0478 89.16 38.4H49.16C49.16 37.3655 49.3431 36.6137 49.4701 36.2252L87.4899 48.6548ZM89.16 38.4C89.16 31.2382 86.644 22.473 78.6 16.44L54.6 48.44C52.6162 46.9521 51.0774 44.9576 50.1435 42.7833C49.2706 40.751 49.16 39.1214 49.16 38.4H89.16ZM78.8788 16.653C71.8206 11.1633 63.4517 10.48 58.32 10.48V50.48C59.1952 50.48 59.2166 50.5632 58.663 50.4322C58.1343 50.307 56.366 49.8174 54.3212 48.227L78.8788 16.653ZM58.32 10.48C54.7536 10.48 51.2089 10.8049 47.7018 11.4574L55.0182 50.7826C56.0978 50.5817 57.1931 50.48 58.32 50.48V10.48ZM47.9235 11.4174C44.5309 12.0092 41.1219 12.9004 37.8194 14.2117L52.5806 51.3883C52.9048 51.2596 53.6024 51.0308 54.7965 50.8226L47.9235 11.4174ZM65.2 32.8V22.24H25.2V32.8H65.2ZM52.0348 41.0359C51.9898 41.0522 52.0636 41.0233 52.2833 40.9647C52.5001 40.9069 52.8209 40.8304 53.2605 40.7439L45.5395 1.49611C43.2078 1.95481 40.7619 2.57258 38.3652 3.44411L52.0348 41.0359ZM53.5043 40.6943C54.4475 40.4966 55.4894 40.3318 56.6383 40.2117L52.4817 0.428269C50.0573 0.681572 47.6591 1.05011 45.2957 1.54565L53.5043 40.6943ZM56.6382 40.2117C57.7931 40.0911 58.8173 40.04 59.72 40.04V0.0399971C57.316 0.0399971 54.9003 0.175588 52.4818 0.428265L56.6382 40.2117ZM59.72 40.04C62.1798 40.04 63.7107 40.2772 64.5323 40.4811C65.3315 40.6794 65.1483 40.767 64.5225 40.3099L88.1175 8.01008C79.48 1.70044 69.0214 0.0399971 59.72 0.0399971V40.04ZM64.5976 40.3645C64.1176 40.0173 63.6192 39.558 63.1672 38.9928C62.7167 38.4294 62.4044 37.8759 62.2023 37.4101C61.8093 36.5042 61.96 36.2402 61.96 37.16H101.96C101.96 26.7958 98.433 15.4721 88.0424 7.95551L64.5976 40.3645ZM61.96 37.16C61.96 37.3602 61.9361 37.6288 61.8353 38.0067L100.485 48.3133C101.451 44.6912 101.96 40.9598 101.96 37.16H61.96ZM61.7883 38.1862C61.8195 38.0649 61.7301 38.4741 61.1682 39.4544L95.8718 59.3456C97.8166 55.9526 99.4872 52.2017 100.532 48.1338L61.7883 38.1862ZM61.1288 39.5235C60.6207 40.4182 59.6794 41.824 58.0768 43.7715L88.9632 69.1885C91.574 66.016 93.966 62.7018 95.9112 59.2765L61.1288 39.5235ZM58.0614 43.7901L44.8614 59.8701L75.7786 85.2499L88.9786 69.1699L58.0614 43.7901ZM80.2006 70.378L79.8406 67.098L40.0794 71.462L40.4394 74.742L80.2006 70.378ZM59.96 89.28H84.8V49.28H59.96V89.28ZM64.8 69.28V80H104.8V69.28H64.8ZM84.8 60H45.92V100H84.8V60Z" fill="black" mask="url(#path-2-outside-1_147_3201)"/>
</svg>
