<svg width="90" height="120" viewBox="0 0 90 120" fill="none" xmlns="http://www.w3.org/2000/svg">
<circle cx="44.5" cy="75.5" r="43" fill="black" stroke="#ED1C24" stroke-width="3"/>
<mask id="path-2-outside-1_147_3207" maskUnits="userSpaceOnUse" x="27" y="0" width="81" height="101" fill="black">
<rect fill="white" x="27" width="81" height="101"/>
<path d="M63.12 80.76C60.3733 80.76 57.6933 80.5867 55.08 80.24C52.4933 79.8933 50.04 79.3867 47.72 78.72V69C49.9867 69.64 52.44 70.1467 55.08 70.52C57.72 70.8933 60.2267 71.08 62.6 71.08C66.8667 71.08 69.9733 70.3733 71.92 68.96C73.8667 67.5467 74.84 65.48 74.84 62.76C74.84 60.1467 73.9067 58.1467 72.04 56.76C70.2 55.3467 67.08 54.64 62.68 54.64H54V44.8H60.72C64.9867 44.8 68.04 44.12 69.88 42.76C71.7467 41.4 72.68 39.4933 72.68 37.04C72.68 34.64 71.8267 32.8267 70.12 31.6C68.44 30.3467 65.7733 29.72 62.12 29.72C59.9067 29.72 57.6267 29.9067 55.28 30.28C52.96 30.6533 50.7867 31.2 48.76 31.92V22.2C50.04 21.7733 51.5067 21.4 53.16 21.08C54.8133 20.7333 56.5333 20.48 58.32 20.32C60.1067 20.1333 61.84 20.04 63.52 20.04C70.6933 20.04 76.08 21.4267 79.68 24.2C83.3067 26.9467 85.12 30.84 85.12 35.88C85.12 39.4533 84.0933 42.4667 82.04 44.92C80.0133 47.3733 77.2 48.9867 73.6 49.76L73.64 49.12C77.9333 49.76 81.24 51.3067 83.56 53.76C85.88 56.1867 87.04 59.4533 87.04 63.56C87.04 67.1333 86.16 70.2133 84.4 72.8C82.6667 75.36 80.0267 77.3333 76.48 78.72C72.9333 80.08 68.48 80.76 63.12 80.76Z"/>
</mask>
<path d="M63.12 80.76C60.3733 80.76 57.6933 80.5867 55.08 80.24C52.4933 79.8933 50.04 79.3867 47.72 78.72V69C49.9867 69.64 52.44 70.1467 55.08 70.52C57.72 70.8933 60.2267 71.08 62.6 71.08C66.8667 71.08 69.9733 70.3733 71.92 68.96C73.8667 67.5467 74.84 65.48 74.84 62.76C74.84 60.1467 73.9067 58.1467 72.04 56.76C70.2 55.3467 67.08 54.64 62.68 54.64H54V44.8H60.72C64.9867 44.8 68.04 44.12 69.88 42.76C71.7467 41.4 72.68 39.4933 72.68 37.04C72.68 34.64 71.8267 32.8267 70.12 31.6C68.44 30.3467 65.7733 29.72 62.12 29.72C59.9067 29.72 57.6267 29.9067 55.28 30.28C52.96 30.6533 50.7867 31.2 48.76 31.92V22.2C50.04 21.7733 51.5067 21.4 53.16 21.08C54.8133 20.7333 56.5333 20.48 58.32 20.32C60.1067 20.1333 61.84 20.04 63.52 20.04C70.6933 20.04 76.08 21.4267 79.68 24.2C83.3067 26.9467 85.12 30.84 85.12 35.88C85.12 39.4533 84.0933 42.4667 82.04 44.92C80.0133 47.3733 77.2 48.9867 73.6 49.76L73.64 49.12C77.9333 49.76 81.24 51.3067 83.56 53.76C85.88 56.1867 87.04 59.4533 87.04 63.56C87.04 67.1333 86.16 70.2133 84.4 72.8C82.6667 75.36 80.0267 77.3333 76.48 78.72C72.9333 80.08 68.48 80.76 63.12 80.76Z" fill="#ED1C24"/>
<path d="M55.08 80.24L52.4233 100.063L52.4367 100.065L52.45 100.066L55.08 80.24ZM47.72 78.72H27.72V93.7822L42.1964 97.9421L47.72 78.72ZM47.72 69L53.1546 49.7525L27.72 42.571V69H47.72ZM55.08 70.52L57.8804 50.717H57.8804L55.08 70.52ZM71.92 68.96L60.1698 52.7757L60.1697 52.7757L71.92 68.96ZM72.04 56.76L59.8569 72.621L59.9844 72.719L60.1135 72.8149L72.04 56.76ZM54 54.64H34V74.64H54V54.64ZM54 44.8V24.8H34V44.8H54ZM69.88 42.76L58.1028 26.5953L58.0474 26.6357L57.9922 26.6765L69.88 42.76ZM70.12 31.6L58.1607 47.6305L58.3031 47.7367L58.4473 47.8403L70.12 31.6ZM55.28 30.28L52.1377 10.5284L52.1201 10.5312L52.1025 10.534L55.28 30.28ZM48.76 31.92H28.76V60.2499L55.4553 50.766L48.76 31.92ZM48.76 22.2L42.4354 3.22634L28.76 7.78482V22.2H48.76ZM53.16 21.08L56.9604 40.7156L57.1126 40.6861L57.2643 40.6543L53.16 21.08ZM58.32 20.32L60.1039 40.2403L60.2512 40.2271L60.3982 40.2117L58.32 20.32ZM79.68 24.2L67.4745 40.0438L67.5396 40.0939L67.6051 40.1435L79.68 24.2ZM82.04 44.92L66.7029 32.0835L66.6617 32.1328L66.6208 32.1824L82.04 44.92ZM73.6 49.76L53.6389 48.5124L51.9924 74.8579L77.8005 69.3139L73.6 49.76ZM73.64 49.12L76.5888 29.3386L55.0381 26.1261L53.6789 47.8724L73.64 49.12ZM83.56 53.76L69.0285 67.5017L69.066 67.5414L69.1037 67.5808L83.56 53.76ZM84.4 72.8L67.8646 61.5491L67.8518 61.568L67.839 61.5869L84.4 72.8ZM76.48 78.72L83.6408 97.3941L83.7018 97.3707L83.7627 97.3469L76.48 78.72ZM63.12 60.76C61.2163 60.76 59.4159 60.64 57.71 60.4137L52.45 100.066C55.9707 100.533 59.5304 100.76 63.12 100.76V60.76ZM57.7367 60.4172C56.0417 60.1901 54.5518 59.8738 53.2436 59.4979L42.1964 97.9421C45.5282 98.8995 48.945 99.5966 52.4233 100.063L57.7367 60.4172ZM67.72 78.72V69H27.72V78.72H67.72ZM42.2854 88.2475C45.5208 89.161 48.864 89.84 52.2796 90.323L57.8804 50.717C56.016 50.4534 54.4525 50.119 53.1546 49.7525L42.2854 88.2475ZM52.2796 90.323C55.7359 90.8117 59.1836 91.08 62.6 91.08V51.08C61.2698 51.08 59.7041 50.9749 57.8804 50.717L52.2796 90.323ZM62.6 91.08C68.2068 91.08 76.5459 90.3168 83.6703 85.1443L60.1697 52.7757C61.971 51.4679 63.4219 51.1101 63.694 51.0482C63.9912 50.9805 63.7093 51.08 62.6 51.08V91.08ZM83.6702 85.1443C91.5332 79.4356 94.84 70.9205 94.84 62.76H54.84C54.84 61.7289 55.0308 59.9209 56.0163 57.8284C57.0418 55.6509 58.5667 53.9395 60.1698 52.7757L83.6702 85.1443ZM94.84 62.76C94.84 54.7196 91.5943 46.3715 83.9665 40.7051L60.1135 72.8149C58.5304 71.6388 57.0288 69.9274 56.0163 67.7577C55.0403 65.6662 54.84 63.8436 54.84 62.76H94.84ZM84.2231 40.899C76.9137 35.2845 68.0866 34.64 62.68 34.64V74.64C63.9052 74.64 64.2176 74.7474 63.902 74.6759C63.6449 74.6177 61.9275 74.2115 59.8569 72.621L84.2231 40.899ZM62.68 34.64H54V74.64H62.68V34.64ZM74 54.64V44.8H34V54.64H74ZM54 64.8H60.72V24.8H54V64.8ZM60.72 64.8C66.0694 64.8 74.5883 64.1501 81.7678 58.8435L57.9922 26.6765C59.9818 25.2059 61.6043 24.8257 61.8624 24.7683C62.1724 24.6992 61.8803 24.8 60.72 24.8V64.8ZM81.6572 58.9247C89.0564 53.5339 92.68 45.4198 92.68 37.04H52.68C52.68 35.693 52.9493 33.6974 54.0167 31.5168C55.1049 29.2939 56.6416 27.6599 58.1028 26.5953L81.6572 58.9247ZM92.68 37.04C92.68 29.2529 89.5261 20.9181 81.7927 15.3597L58.4473 47.8403C56.6768 46.5678 55.0376 44.7207 53.9436 42.3959C52.8934 40.1643 52.68 38.2105 52.68 37.04H92.68ZM82.0793 15.5695C75.2006 10.4378 67.2273 9.72 62.12 9.72V49.72C62.8829 49.72 62.853 49.7932 62.2846 49.6596C61.729 49.5291 60.0838 49.0651 58.1607 47.6305L82.0793 15.5695ZM62.12 9.72C58.7806 9.72 55.4482 10.0017 52.1377 10.5284L58.4223 50.0316C59.8051 49.8116 61.0327 49.72 62.12 49.72V9.72ZM52.1025 10.534C48.694 11.0825 45.3337 11.9126 42.0647 13.074L55.4553 50.766C56.2396 50.4874 57.226 50.2241 58.4575 50.026L52.1025 10.534ZM68.76 31.92V22.2H28.76V31.92H68.76ZM55.0846 41.1737C55.3657 41.08 55.9622 40.9088 56.9604 40.7156L49.3596 1.4444C47.0511 1.8912 44.7143 2.4667 42.4354 3.22634L55.0846 41.1737ZM57.2643 40.6543C58.1062 40.4778 59.0492 40.3347 60.1039 40.2403L56.5361 0.399714C54.0175 0.625263 51.5205 0.988854 49.0557 1.50566L57.2643 40.6543ZM60.3982 40.2117C61.5416 40.0923 62.58 40.04 63.52 40.04V0.0399971C61.1001 0.0399971 58.6717 0.174389 56.2418 0.428265L60.3982 40.2117ZM63.52 40.04C65.8826 40.04 67.2801 40.2751 67.954 40.4485C68.5989 40.6145 68.2406 40.634 67.4745 40.0438L91.8856 8.35624C83.2779 1.72515 72.7228 0.0399971 63.52 0.0399971V40.04ZM67.6051 40.1435C66.9776 39.6683 66.1818 38.8089 65.63 37.6241C65.1093 36.506 65.12 35.7754 65.12 35.88H105.12C105.12 25.3543 100.962 15.2293 91.7549 8.25645L67.6051 40.1435ZM65.12 35.88C65.12 35.7384 65.1434 35.1777 65.4186 34.3699C65.7039 33.5328 66.1564 32.7365 66.7029 32.0835L97.3771 57.7565C102.798 51.2795 105.12 43.5618 105.12 35.88H65.12ZM66.6208 32.1824C67.1683 31.5196 67.8224 30.9864 68.4607 30.6203C69.0689 30.2715 69.4498 30.1953 69.3995 30.2061L77.8005 69.3139C85.0768 67.7509 92.1281 64.1111 97.4592 57.6576L66.6208 32.1824ZM93.5611 51.0075L93.6011 50.3675L53.6789 47.8724L53.6389 48.5124L93.5611 51.0075ZM70.6912 68.9014C71.2755 68.9885 71.2585 69.0596 70.8663 68.8762C70.4293 68.6718 69.7306 68.2442 69.0285 67.5017L98.0915 40.0183C91.9116 33.4832 84.0315 30.4481 76.5888 29.3386L70.6912 68.9014ZM69.1037 67.5808C68.2496 66.6874 67.6558 65.6597 67.323 64.7226C67.0137 63.8515 67.04 63.3763 67.04 63.56H107.04C107.04 55.5188 104.653 46.8812 98.0163 39.9392L69.1037 67.5808ZM67.04 63.56C67.04 63.6999 67.024 63.495 67.1495 63.0556C67.2811 62.5949 67.5165 62.0608 67.8646 61.5491L100.935 84.0509C105.263 77.6908 107.04 70.5574 107.04 63.56H67.04ZM67.839 61.5869C68.3031 60.9015 68.7983 60.4404 69.1459 60.1806C69.4682 59.9397 69.5502 59.9551 69.1973 60.0931L83.7627 97.3469C90.1985 94.8307 96.4778 90.6344 100.961 84.0131L67.839 61.5869ZM69.3192 60.0459C68.7891 60.2491 66.9607 60.76 63.12 60.76V100.76C69.9993 100.76 77.0775 99.9109 83.6408 97.3941L69.3192 60.0459Z" fill="black" mask="url(#path-2-outside-1_147_3207)"/>
</svg>
